<svg width="66" height="71" viewBox="0 0 66 71" fill="none" xmlns="http://www.w3.org/2000/svg">
<path d="M62.7809 45.7774V19.4463C63.9187 19.4463 64.8411 18.8089 64.8411 18.0226V3.9252C64.8411 2.19762 62.8146 0.797119 60.3148 0.797119H5.67972C3.17995 0.797119 1.15356 2.19762 1.15356 3.92514V18.0226C1.15356 18.8089 2.07592 19.4463 3.21369 19.4463L3.21378 45.7774C2.07602 45.7774 1.15356 46.4149 1.15356 47.2012V61.2986C1.15356 63.0262 3.18004 64.4267 5.67981 64.4267H60.315C62.8147 64.4267 64.8412 63.0263 64.8412 61.2987V47.2012C64.8411 46.4149 63.9187 45.7774 62.7809 45.7774Z" fill="url(#paint0_linear_292_988)"/>
<g opacity="0.5">
<path d="M60.3148 0.797119H5.67972C3.17995 0.797119 1.15356 2.19755 1.15356 3.9252V4.59373C1.15356 2.86608 3.18005 1.46565 5.67972 1.46565H60.3149C62.8147 1.46565 64.8412 2.86621 64.8412 4.59373V3.9252C64.8411 2.19755 62.8146 0.797119 60.3148 0.797119Z" fill="white"/>
</g>
<path d="M60.3147 0.797133C62.8144 0.797133 64.8409 2.19763 64.8409 3.92522V18.0227C64.8409 18.809 63.9186 19.4464 62.7808 19.4464V45.7775C63.9186 45.7775 64.8409 46.4149 64.8409 47.2012V61.2987C64.8409 63.0262 62.8145 64.4267 60.3148 64.4267H5.67958C3.17981 64.4267 1.15333 63.0262 1.15333 61.2986V47.2012C1.15333 46.4149 2.07569 45.7775 3.21345 45.7775H3.21355V19.4463H3.21345C2.07569 19.4463 1.15333 18.8089 1.15333 18.0226V3.92522C1.15333 2.19763 3.17981 0.7972 5.67949 0.7972H60.3147M60.3147 0H5.67958C2.54783 0 0 1.7608 0 3.92515V18.0226C0 18.9663 0.856325 19.7746 2.06012 20.0955L2.06022 45.1281C0.856325 45.4491 0 46.2573 0 47.2011V61.2985C0 63.4628 2.54792 65.2237 5.67968 65.2237H60.3149C63.4466 65.2237 65.9944 63.4629 65.9944 61.2986V47.2012C65.9944 46.2574 65.1382 45.4492 63.9343 45.1282V20.0956C65.1381 19.7746 65.9944 18.9664 65.9944 18.0227V3.92522C65.9943 1.76087 63.4465 0 60.3147 0Z" fill="#AF2F28"/>
<g opacity="0.5">
<mask id="mask0_292_988" style="mask-type:luminance" maskUnits="userSpaceOnUse" x="1" y="0" width="64" height="65">
<path d="M62.7809 45.7774V19.4463C63.9187 19.4463 64.8411 18.8089 64.8411 18.0226V3.9252C64.8411 2.19762 62.8146 0.797119 60.3148 0.797119H5.67972C3.17995 0.797119 1.15356 2.19762 1.15356 3.92514V18.0226C1.15356 18.8089 2.07592 19.4463 3.21369 19.4463H3.21378V45.7774H3.21369C2.07592 45.7774 1.15356 46.4149 1.15356 47.2012V61.2986C1.15356 63.0262 3.18004 64.4267 5.67981 64.4267H60.315C62.8147 64.4267 64.8412 63.0263 64.8412 61.2987V47.2012C64.8411 46.4149 63.9187 45.7774 62.7809 45.7774Z" fill="white"/>
</mask>
<g mask="url(#mask0_292_988)">
<path d="M10.4784 68.678H8.17153V52.2694H14.042V40.8012H6.58374V20.9362H16.5057V8.55319H10.3542V-4.87207H12.661V6.95892H18.8126V22.5305H8.8906V39.207H16.3489V53.8637H10.4784V68.678Z" fill="white"/>
</g>
<mask id="mask1_292_988" style="mask-type:luminance" maskUnits="userSpaceOnUse" x="1" y="0" width="64" height="65">
<path d="M62.7809 45.7774V19.4463C63.9187 19.4463 64.8411 18.8089 64.8411 18.0226V3.9252C64.8411 2.19762 62.8146 0.797119 60.3148 0.797119H5.67972C3.17995 0.797119 1.15356 2.19762 1.15356 3.92514V18.0226C1.15356 18.8089 2.07592 19.4463 3.21369 19.4463H3.21378V45.7774H3.21369C2.07592 45.7774 1.15356 46.4149 1.15356 47.2012V61.2986C1.15356 63.0262 3.18004 64.4267 5.67981 64.4267H60.315C62.8147 64.4267 64.8412 63.0263 64.8412 61.2987V47.2012C64.8411 46.4149 63.9187 45.7774 62.7809 45.7774Z" fill="white"/>
</mask>
<g mask="url(#mask1_292_988)">
<path d="M36.4175 71.2414H34.1107V43.2903H40.319V32.7002H27.9023V13.942H35.9275V-4.32349H38.2344V15.5363H30.2092V31.1059H42.6259V44.8846H36.4175V71.2414Z" fill="white"/>
</g>
<mask id="mask2_292_988" style="mask-type:luminance" maskUnits="userSpaceOnUse" x="1" y="0" width="64" height="65">
<path d="M62.7809 45.7774V19.4463C63.9187 19.4463 64.8411 18.8089 64.8411 18.0226V3.9252C64.8411 2.19762 62.8146 0.797119 60.3148 0.797119H5.67972C3.17995 0.797119 1.15356 2.19762 1.15356 3.92514V18.0226C1.15356 18.8089 2.07592 19.4463 3.21369 19.4463H3.21378V45.7774H3.21369C2.07592 45.7774 1.15356 46.4149 1.15356 47.2012V61.2986C1.15356 63.0262 3.18004 64.4267 5.67981 64.4267H60.315C62.8147 64.4267 64.8412 63.0263 64.8412 61.2987V47.2012C64.8411 46.4149 63.9187 45.7774 62.7809 45.7774Z" fill="white"/>
</mask>
<g mask="url(#mask2_292_988)">
<path d="M51.754 68.6781H49.4472V47.2674H53.4951V31.719H48.4814V15.5245L52.1359 12.999V-4.32349H54.4428V13.6594L50.7883 16.185V30.1247H55.802V48.8617H51.754V68.6781Z" fill="white"/>
</g>
</g>
<path d="M55.7742 60.6814H10.2199C8.16843 60.6814 6.50537 59.5321 6.50537 58.1143V13.3291C6.50537 11.9114 8.16843 10.762 10.2199 10.762H55.7742C57.8257 10.762 59.4887 11.9114 59.4887 13.3291V58.1143C59.4887 59.5321 57.8257 60.6814 55.7742 60.6814Z" fill="#FFE7C9"/>
<path d="M55.7742 61.0801H10.2199C7.85378 61.0801 5.92871 59.7497 5.92871 58.1144V13.3292C5.92871 11.6939 7.85378 10.3635 10.2199 10.3635H55.7742C58.1404 10.3635 60.0654 11.6939 60.0654 13.3292V58.1143C60.0654 59.7497 58.1404 61.0801 55.7742 61.0801ZM10.2199 11.1607C8.4898 11.1607 7.08214 12.1335 7.08214 13.3293V58.1144C7.08214 59.3102 8.4898 60.283 10.2199 60.283H55.7742C57.5043 60.283 58.912 59.3101 58.912 58.1144V13.3292C58.912 12.1334 57.5043 11.1606 55.7742 11.1606H10.2199V11.1607Z" fill="#AF2F28"/>
<path d="M5.23443 4.95619C6.23938 4.95619 7.05406 4.39317 7.05406 3.69865C7.05406 3.00412 6.23938 2.4411 5.23443 2.4411C4.22947 2.4411 3.41479 3.00412 3.41479 3.69865C3.41479 4.39317 4.22947 4.95619 5.23443 4.95619Z" fill="#AF2F28"/>
<path d="M60.7601 4.95619C61.765 4.95619 62.5797 4.39317 62.5797 3.69865C62.5797 3.00412 61.765 2.4411 60.7601 2.4411C59.7551 2.4411 58.9404 3.00412 58.9404 3.69865C58.9404 4.39317 59.7551 4.95619 60.7601 4.95619Z" fill="#AF2F28"/>
<path d="M5.23443 63.1965C6.23938 63.1965 7.05406 62.6335 7.05406 61.939C7.05406 61.2445 6.23938 60.6815 5.23443 60.6815C4.22947 60.6815 3.41479 61.2445 3.41479 61.939C3.41479 62.6335 4.22947 63.1965 5.23443 63.1965Z" fill="#AF2F28"/>
<path d="M60.7601 63.1965C61.765 63.1965 62.5797 62.6335 62.5797 61.939C62.5797 61.2445 61.765 60.6815 60.7601 60.6815C59.7551 60.6815 58.9404 61.2445 58.9404 61.939C58.9404 62.6335 59.7551 63.1965 60.7601 63.1965Z" fill="#AF2F28"/>
<mask id="path-16-outside-1_292_988" maskUnits="userSpaceOnUse" x="18.8335" y="2.18231" width="29" height="7" fill="black">
<rect fill="white" x="18.8335" y="2.18231" width="29" height="7"/>
<path d="M20.8185 8.18231C20.5853 8.18231 20.3998 8.11807 20.2618 7.98959C20.1285 7.86111 20.0619 7.67315 20.0619 7.4257V6.41927C20.0619 5.91486 20.138 5.5318 20.2903 5.27008C20.4426 5.00836 20.6353 4.82039 20.8685 4.70619L20.8328 4.57057H20.7114C20.4926 4.57057 20.3189 4.50157 20.1904 4.36357C20.0667 4.22081 20.0024 4.02809 19.9977 3.78541C19.9929 3.54748 20.0548 3.35714 20.1832 3.21438C20.3165 3.07162 20.4926 3.00025 20.7114 3.00025H23.2097C23.7189 3.00025 23.9734 3.23817 23.9734 3.71403C23.9734 3.92816 23.9116 4.09947 23.7879 4.22795C23.6641 4.35643 23.4714 4.42067 23.2097 4.42067H21.8178C21.6417 4.42067 21.5537 4.52298 21.5537 4.7276V5.24152C21.7774 5.17966 22.0105 5.10829 22.2532 5.02739C22.4959 4.94649 22.7291 4.90605 22.9527 4.90605C23.1907 4.90605 23.3739 4.96553 23.5023 5.08449C23.6356 5.1987 23.7022 5.37476 23.7022 5.61269C23.7022 5.84586 23.6356 6.02193 23.5023 6.14089C23.3739 6.2551 23.1907 6.31458 22.9527 6.31934C22.7291 6.3241 22.4935 6.28841 22.2461 6.21227C22.0034 6.13137 21.7702 6.06 21.5466 5.99813L21.5394 7.4257C21.5394 7.67315 21.4728 7.86111 21.3396 7.98959C21.2111 8.11807 21.0374 8.18231 20.8185 8.18231ZM24.293 3.67834C24.293 3.45945 24.3596 3.29052 24.4929 3.17155C24.6309 3.04783 24.8069 2.98597 25.0211 2.98597C25.2447 2.98597 25.4232 3.04783 25.5564 3.17155C25.6897 3.29052 25.7563 3.45945 25.7563 3.67834V6.71906C25.7563 6.80947 25.7801 6.87371 25.8277 6.91178C25.8752 6.94509 25.9538 6.93081 26.0632 6.86895C26.3011 6.73095 26.5129 6.62151 26.6985 6.54061C26.8841 6.45496 27.0887 6.41213 27.3123 6.41213C27.6216 6.41213 27.8548 6.49302 28.0118 6.65482C28.1689 6.81661 28.2474 7.02836 28.2474 7.29008C28.2474 7.57084 28.1617 7.78735 27.9904 7.93963C27.8239 8.0919 27.555 8.16804 27.1838 8.16804H25.7135C25.3994 8.16804 25.1377 8.13235 24.9283 8.06097C24.7189 7.98483 24.5595 7.84921 24.4501 7.65411C24.3454 7.45901 24.293 7.17588 24.293 6.80471V3.67834ZM30.4533 8.20373C29.9441 8.20373 29.5134 8.0919 29.1613 7.86825C28.8092 7.6446 28.5427 7.33529 28.3619 6.94033C28.181 6.54537 28.0906 6.09093 28.0906 5.577C28.0906 5.06784 28.181 4.61577 28.3619 4.22081C28.5427 3.8211 28.8092 3.50941 29.1613 3.28576C29.5134 3.05735 29.9441 2.94314 30.4533 2.94314C30.9624 2.94314 31.3907 3.05735 31.7381 3.28576C32.0902 3.50941 32.3567 3.8211 32.5375 4.22081C32.7183 4.61577 32.8087 5.06784 32.8087 5.577C32.8087 6.09093 32.7183 6.54537 32.5375 6.94033C32.3567 7.33529 32.0902 7.6446 31.7381 7.86825C31.3907 8.0919 30.9624 8.20373 30.4533 8.20373ZM28.99 5.4628C28.99 5.61031 29.0257 5.75069 29.0971 5.88393C29.1684 6.01241 29.3088 6.1171 29.5182 6.19799C29.7276 6.27413 30.0393 6.3122 30.4533 6.3122C30.8672 6.3122 31.1766 6.27413 31.3812 6.19799C31.5905 6.1171 31.7309 6.01241 31.8023 5.88393C31.8737 5.75069 31.9094 5.61031 31.9094 5.4628C31.9094 5.31052 31.8737 5.1749 31.8023 5.05594C31.7309 4.93222 31.5905 4.83467 31.3812 4.76329C31.1766 4.68715 30.8672 4.64908 30.4533 4.64908C30.0393 4.64908 29.7276 4.68715 29.5182 4.76329C29.3088 4.83467 29.1684 4.93222 29.0971 5.05594C29.0257 5.1749 28.99 5.31052 28.99 5.4628ZM35.4581 8.20373C34.9489 8.20373 34.5183 8.0919 34.1662 7.86825C33.814 7.6446 33.5475 7.33529 33.3667 6.94033C33.1859 6.54537 33.0955 6.09093 33.0955 5.577C33.0955 5.06784 33.1859 4.61577 33.3667 4.22081C33.5475 3.8211 33.814 3.50941 34.1662 3.28576C34.5183 3.05735 34.9489 2.94314 35.4581 2.94314C35.9673 2.94314 36.3955 3.05735 36.7429 3.28576C37.095 3.50941 37.3615 3.8211 37.5423 4.22081C37.7232 4.61577 37.8136 5.06784 37.8136 5.577C37.8136 6.09093 37.7232 6.54537 37.5423 6.94033C37.3615 7.33529 37.095 7.6446 36.7429 7.86825C36.3955 8.0919 35.9673 8.20373 35.4581 8.20373ZM33.9948 5.4628C33.9948 5.61031 34.0305 5.75069 34.1019 5.88393C34.1733 6.01241 34.3137 6.1171 34.523 6.19799C34.7324 6.27413 35.0441 6.3122 35.4581 6.3122C35.8721 6.3122 36.1814 6.27413 36.386 6.19799C36.5954 6.1171 36.7358 6.01241 36.8072 5.88393C36.8785 5.75069 36.9142 5.61031 36.9142 5.4628C36.9142 5.31052 36.8785 5.1749 36.8072 5.05594C36.7358 4.93222 36.5954 4.83467 36.386 4.76329C36.1814 4.68715 35.8721 4.64908 35.4581 4.64908C35.0441 4.64908 34.7324 4.68715 34.523 4.76329C34.3137 4.83467 34.1733 4.93222 34.1019 5.05594C34.0305 5.1749 33.9948 5.31052 33.9948 5.4628ZM41.5987 8.18231C41.3608 8.18231 41.1728 8.11093 41.0348 7.96818C40.8968 7.82066 40.8231 7.63032 40.8135 7.39715C40.7945 6.99267 40.6922 6.70716 40.5066 6.54061C40.3258 6.3693 40.0831 6.28365 39.7786 6.28365H39.6358V7.4257C39.6358 7.67315 39.5692 7.86111 39.4359 7.98959C39.3027 8.11807 39.1266 8.18231 38.9077 8.18231C38.6746 8.18231 38.4914 8.11807 38.3581 7.98959C38.2249 7.86111 38.1583 7.67315 38.1583 7.4257V6.41927C38.1583 5.91486 38.232 5.5318 38.3795 5.27008C38.5318 5.00836 38.7245 4.82039 38.9577 4.70619L38.922 4.57057H38.8078C38.5889 4.57057 38.4152 4.50157 38.2867 4.36357C38.163 4.22081 38.0964 4.02809 38.0869 3.78541C38.0821 3.54748 38.1464 3.35476 38.2796 3.20724C38.4128 3.05973 38.5889 2.98597 38.8078 2.98597H40.628C41.1371 2.98597 41.5487 3.10969 41.8628 3.35714C42.1769 3.60458 42.3339 3.99954 42.3339 4.54202C42.3339 4.82277 42.2863 5.05832 42.1911 5.24866C42.096 5.43425 41.9746 5.577 41.8271 5.67693C41.6796 5.77686 41.5249 5.83634 41.3632 5.85538V5.94817C41.6582 6.01955 41.9009 6.17658 42.0912 6.41927C42.2863 6.66195 42.3839 6.98791 42.3839 7.39715C42.3839 7.65887 42.3125 7.85635 42.1697 7.98959C42.0317 8.11807 41.8414 8.18231 41.5987 8.18231ZM39.6001 5.19156C39.6001 5.29625 39.6191 5.36525 39.6572 5.39856C39.6953 5.43187 39.7667 5.44852 39.8713 5.44852H40.5423C40.7422 5.44852 40.8873 5.40332 40.9777 5.3129C41.0681 5.22249 41.1133 5.09639 41.1133 4.9346C41.1133 4.76805 41.0681 4.63957 40.9777 4.54915C40.8873 4.45874 40.7422 4.41354 40.5423 4.41354H39.8713C39.7667 4.41354 39.6953 4.42781 39.6572 4.45636C39.6191 4.48491 39.6001 4.55391 39.6001 4.66336V5.19156ZM44.9774 8.20373C44.7109 8.20373 44.442 8.17755 44.1708 8.12521C43.9043 8.06811 43.6569 7.98721 43.4284 7.88252C43.2048 7.77308 43.024 7.64222 42.886 7.48994C42.748 7.33291 42.679 7.15208 42.679 6.94747C42.679 6.68575 42.7622 6.47637 42.9288 6.31934C43.0953 6.16231 43.2904 6.08855 43.5141 6.09806C43.6902 6.10282 43.8662 6.14089 44.0423 6.21227C44.2184 6.27889 44.3968 6.34551 44.5776 6.41213C44.7632 6.47875 44.9488 6.51206 45.1344 6.51206C45.32 6.51206 45.4484 6.48827 45.5198 6.44068C45.5912 6.3931 45.6269 6.32885 45.6269 6.24796C45.6269 6.15279 45.5769 6.07427 45.477 6.01241C45.3771 5.95055 45.251 5.90296 45.0987 5.86965L44.7489 5.784C44.3873 5.69835 44.0637 5.60317 43.7782 5.49849C43.4927 5.38904 43.2667 5.24628 43.1001 5.07022C42.9383 4.88939 42.8574 4.64908 42.8574 4.3493C42.8574 4.02096 42.9478 3.75448 43.1287 3.54986C43.3095 3.34048 43.5545 3.18821 43.8638 3.09304C44.1732 2.99787 44.5182 2.95028 44.8988 2.95028C45.289 2.95028 45.6317 2.99073 45.9267 3.07162C46.2217 3.15252 46.4501 3.2691 46.6119 3.42138C46.7785 3.57365 46.8617 3.75923 46.8617 3.97813C46.8617 4.2113 46.7975 4.3945 46.669 4.52774C46.5453 4.65622 46.3787 4.72046 46.1694 4.72046C46.0314 4.72046 45.8862 4.69667 45.734 4.64908C45.5864 4.6015 45.4294 4.55629 45.2629 4.51347C45.1011 4.46588 44.9274 4.44209 44.7418 4.44209C44.5753 4.44209 44.4492 4.46826 44.3635 4.5206C44.2778 4.56819 44.235 4.63243 44.235 4.71332C44.235 4.81325 44.2921 4.88701 44.4063 4.9346C44.5205 4.98218 44.7085 5.03929 44.9702 5.10591L45.3699 5.1987C45.6983 5.27959 45.9862 5.37714 46.2336 5.49135C46.4811 5.60555 46.6738 5.75545 46.8118 5.94103C46.9498 6.12662 47.0188 6.3693 47.0188 6.66909C47.0188 7.03074 46.9331 7.32577 46.7618 7.55418C46.5905 7.77783 46.3526 7.942 46.048 8.04669C45.7435 8.15138 45.3866 8.20373 44.9774 8.20373Z"/>
</mask>
<path d="M20.8185 8.18231C20.5853 8.18231 20.3998 8.11807 20.2618 7.98959C20.1285 7.86111 20.0619 7.67315 20.0619 7.4257V6.41927C20.0619 5.91486 20.138 5.5318 20.2903 5.27008C20.4426 5.00836 20.6353 4.82039 20.8685 4.70619L20.8328 4.57057H20.7114C20.4926 4.57057 20.3189 4.50157 20.1904 4.36357C20.0667 4.22081 20.0024 4.02809 19.9977 3.78541C19.9929 3.54748 20.0548 3.35714 20.1832 3.21438C20.3165 3.07162 20.4926 3.00025 20.7114 3.00025H23.2097C23.7189 3.00025 23.9734 3.23817 23.9734 3.71403C23.9734 3.92816 23.9116 4.09947 23.7879 4.22795C23.6641 4.35643 23.4714 4.42067 23.2097 4.42067H21.8178C21.6417 4.42067 21.5537 4.52298 21.5537 4.7276V5.24152C21.7774 5.17966 22.0105 5.10829 22.2532 5.02739C22.4959 4.94649 22.7291 4.90605 22.9527 4.90605C23.1907 4.90605 23.3739 4.96553 23.5023 5.08449C23.6356 5.1987 23.7022 5.37476 23.7022 5.61269C23.7022 5.84586 23.6356 6.02193 23.5023 6.14089C23.3739 6.2551 23.1907 6.31458 22.9527 6.31934C22.7291 6.3241 22.4935 6.28841 22.2461 6.21227C22.0034 6.13137 21.7702 6.06 21.5466 5.99813L21.5394 7.4257C21.5394 7.67315 21.4728 7.86111 21.3396 7.98959C21.2111 8.11807 21.0374 8.18231 20.8185 8.18231ZM24.293 3.67834C24.293 3.45945 24.3596 3.29052 24.4929 3.17155C24.6309 3.04783 24.8069 2.98597 25.0211 2.98597C25.2447 2.98597 25.4232 3.04783 25.5564 3.17155C25.6897 3.29052 25.7563 3.45945 25.7563 3.67834V6.71906C25.7563 6.80947 25.7801 6.87371 25.8277 6.91178C25.8752 6.94509 25.9538 6.93081 26.0632 6.86895C26.3011 6.73095 26.5129 6.62151 26.6985 6.54061C26.8841 6.45496 27.0887 6.41213 27.3123 6.41213C27.6216 6.41213 27.8548 6.49302 28.0118 6.65482C28.1689 6.81661 28.2474 7.02836 28.2474 7.29008C28.2474 7.57084 28.1617 7.78735 27.9904 7.93963C27.8239 8.0919 27.555 8.16804 27.1838 8.16804H25.7135C25.3994 8.16804 25.1377 8.13235 24.9283 8.06097C24.7189 7.98483 24.5595 7.84921 24.4501 7.65411C24.3454 7.45901 24.293 7.17588 24.293 6.80471V3.67834ZM30.4533 8.20373C29.9441 8.20373 29.5134 8.0919 29.1613 7.86825C28.8092 7.6446 28.5427 7.33529 28.3619 6.94033C28.181 6.54537 28.0906 6.09093 28.0906 5.577C28.0906 5.06784 28.181 4.61577 28.3619 4.22081C28.5427 3.8211 28.8092 3.50941 29.1613 3.28576C29.5134 3.05735 29.9441 2.94314 30.4533 2.94314C30.9624 2.94314 31.3907 3.05735 31.7381 3.28576C32.0902 3.50941 32.3567 3.8211 32.5375 4.22081C32.7183 4.61577 32.8087 5.06784 32.8087 5.577C32.8087 6.09093 32.7183 6.54537 32.5375 6.94033C32.3567 7.33529 32.0902 7.6446 31.7381 7.86825C31.3907 8.0919 30.9624 8.20373 30.4533 8.20373ZM28.99 5.4628C28.99 5.61031 29.0257 5.75069 29.0971 5.88393C29.1684 6.01241 29.3088 6.1171 29.5182 6.19799C29.7276 6.27413 30.0393 6.3122 30.4533 6.3122C30.8672 6.3122 31.1766 6.27413 31.3812 6.19799C31.5905 6.1171 31.7309 6.01241 31.8023 5.88393C31.8737 5.75069 31.9094 5.61031 31.9094 5.4628C31.9094 5.31052 31.8737 5.1749 31.8023 5.05594C31.7309 4.93222 31.5905 4.83467 31.3812 4.76329C31.1766 4.68715 30.8672 4.64908 30.4533 4.64908C30.0393 4.64908 29.7276 4.68715 29.5182 4.76329C29.3088 4.83467 29.1684 4.93222 29.0971 5.05594C29.0257 5.1749 28.99 5.31052 28.99 5.4628ZM35.4581 8.20373C34.9489 8.20373 34.5183 8.0919 34.1662 7.86825C33.814 7.6446 33.5475 7.33529 33.3667 6.94033C33.1859 6.54537 33.0955 6.09093 33.0955 5.577C33.0955 5.06784 33.1859 4.61577 33.3667 4.22081C33.5475 3.8211 33.814 3.50941 34.1662 3.28576C34.5183 3.05735 34.9489 2.94314 35.4581 2.94314C35.9673 2.94314 36.3955 3.05735 36.7429 3.28576C37.095 3.50941 37.3615 3.8211 37.5423 4.22081C37.7232 4.61577 37.8136 5.06784 37.8136 5.577C37.8136 6.09093 37.7232 6.54537 37.5423 6.94033C37.3615 7.33529 37.095 7.6446 36.7429 7.86825C36.3955 8.0919 35.9673 8.20373 35.4581 8.20373ZM33.9948 5.4628C33.9948 5.61031 34.0305 5.75069 34.1019 5.88393C34.1733 6.01241 34.3137 6.1171 34.523 6.19799C34.7324 6.27413 35.0441 6.3122 35.4581 6.3122C35.8721 6.3122 36.1814 6.27413 36.386 6.19799C36.5954 6.1171 36.7358 6.01241 36.8072 5.88393C36.8785 5.75069 36.9142 5.61031 36.9142 5.4628C36.9142 5.31052 36.8785 5.1749 36.8072 5.05594C36.7358 4.93222 36.5954 4.83467 36.386 4.76329C36.1814 4.68715 35.8721 4.64908 35.4581 4.64908C35.0441 4.64908 34.7324 4.68715 34.523 4.76329C34.3137 4.83467 34.1733 4.93222 34.1019 5.05594C34.0305 5.1749 33.9948 5.31052 33.9948 5.4628ZM41.5987 8.18231C41.3608 8.18231 41.1728 8.11093 41.0348 7.96818C40.8968 7.82066 40.8231 7.63032 40.8135 7.39715C40.7945 6.99267 40.6922 6.70716 40.5066 6.54061C40.3258 6.3693 40.0831 6.28365 39.7786 6.28365H39.6358V7.4257C39.6358 7.67315 39.5692 7.86111 39.4359 7.98959C39.3027 8.11807 39.1266 8.18231 38.9077 8.18231C38.6746 8.18231 38.4914 8.11807 38.3581 7.98959C38.2249 7.86111 38.1583 7.67315 38.1583 7.4257V6.41927C38.1583 5.91486 38.232 5.5318 38.3795 5.27008C38.5318 5.00836 38.7245 4.82039 38.9577 4.70619L38.922 4.57057H38.8078C38.5889 4.57057 38.4152 4.50157 38.2867 4.36357C38.163 4.22081 38.0964 4.02809 38.0869 3.78541C38.0821 3.54748 38.1464 3.35476 38.2796 3.20724C38.4128 3.05973 38.5889 2.98597 38.8078 2.98597H40.628C41.1371 2.98597 41.5487 3.10969 41.8628 3.35714C42.1769 3.60458 42.3339 3.99954 42.3339 4.54202C42.3339 4.82277 42.2863 5.05832 42.1911 5.24866C42.096 5.43425 41.9746 5.577 41.8271 5.67693C41.6796 5.77686 41.5249 5.83634 41.3632 5.85538V5.94817C41.6582 6.01955 41.9009 6.17658 42.0912 6.41927C42.2863 6.66195 42.3839 6.98791 42.3839 7.39715C42.3839 7.65887 42.3125 7.85635 42.1697 7.98959C42.0317 8.11807 41.8414 8.18231 41.5987 8.18231ZM39.6001 5.19156C39.6001 5.29625 39.6191 5.36525 39.6572 5.39856C39.6953 5.43187 39.7667 5.44852 39.8713 5.44852H40.5423C40.7422 5.44852 40.8873 5.40332 40.9777 5.3129C41.0681 5.22249 41.1133 5.09639 41.1133 4.9346C41.1133 4.76805 41.0681 4.63957 40.9777 4.54915C40.8873 4.45874 40.7422 4.41354 40.5423 4.41354H39.8713C39.7667 4.41354 39.6953 4.42781 39.6572 4.45636C39.6191 4.48491 39.6001 4.55391 39.6001 4.66336V5.19156ZM44.9774 8.20373C44.7109 8.20373 44.442 8.17755 44.1708 8.12521C43.9043 8.06811 43.6569 7.98721 43.4284 7.88252C43.2048 7.77308 43.024 7.64222 42.886 7.48994C42.748 7.33291 42.679 7.15208 42.679 6.94747C42.679 6.68575 42.7622 6.47637 42.9288 6.31934C43.0953 6.16231 43.2904 6.08855 43.5141 6.09806C43.6902 6.10282 43.8662 6.14089 44.0423 6.21227C44.2184 6.27889 44.3968 6.34551 44.5776 6.41213C44.7632 6.47875 44.9488 6.51206 45.1344 6.51206C45.32 6.51206 45.4484 6.48827 45.5198 6.44068C45.5912 6.3931 45.6269 6.32885 45.6269 6.24796C45.6269 6.15279 45.5769 6.07427 45.477 6.01241C45.3771 5.95055 45.251 5.90296 45.0987 5.86965L44.7489 5.784C44.3873 5.69835 44.0637 5.60317 43.7782 5.49849C43.4927 5.38904 43.2667 5.24628 43.1001 5.07022C42.9383 4.88939 42.8574 4.64908 42.8574 4.3493C42.8574 4.02096 42.9478 3.75448 43.1287 3.54986C43.3095 3.34048 43.5545 3.18821 43.8638 3.09304C44.1732 2.99787 44.5182 2.95028 44.8988 2.95028C45.289 2.95028 45.6317 2.99073 45.9267 3.07162C46.2217 3.15252 46.4501 3.2691 46.6119 3.42138C46.7785 3.57365 46.8617 3.75923 46.8617 3.97813C46.8617 4.2113 46.7975 4.3945 46.669 4.52774C46.5453 4.65622 46.3787 4.72046 46.1694 4.72046C46.0314 4.72046 45.8862 4.69667 45.734 4.64908C45.5864 4.6015 45.4294 4.55629 45.2629 4.51347C45.1011 4.46588 44.9274 4.44209 44.7418 4.44209C44.5753 4.44209 44.4492 4.46826 44.3635 4.5206C44.2778 4.56819 44.235 4.63243 44.235 4.71332C44.235 4.81325 44.2921 4.88701 44.4063 4.9346C44.5205 4.98218 44.7085 5.03929 44.9702 5.10591L45.3699 5.1987C45.6983 5.27959 45.9862 5.37714 46.2336 5.49135C46.4811 5.60555 46.6738 5.75545 46.8118 5.94103C46.9498 6.12662 47.0188 6.3693 47.0188 6.66909C47.0188 7.03074 46.9331 7.32577 46.7618 7.55418C46.5905 7.77783 46.3526 7.942 46.048 8.04669C45.7435 8.15138 45.3866 8.20373 44.9774 8.20373Z" fill="white"/>
<path d="M20.2618 7.98959L19.8452 8.42156L19.8529 8.42873L20.2618 7.98959ZM20.2903 5.27008L20.8089 5.57181L20.8089 5.57181L20.2903 5.27008ZM20.8685 4.70619L21.1324 5.24502L21.5738 5.02882L21.4487 4.55349L20.8685 4.70619ZM20.8328 4.57057L21.413 4.41787L21.2953 3.97057H20.8328V4.57057ZM20.1904 4.36357L19.737 4.75653L19.744 4.7646L19.7513 4.77242L20.1904 4.36357ZM19.9977 3.78541L20.5976 3.77364L20.5975 3.77341L19.9977 3.78541ZM20.1832 3.21438L19.7445 2.80492L19.7373 2.813L20.1832 3.21438ZM23.7879 4.22795L24.22 4.64414L23.7879 4.22795ZM21.5537 5.24152H20.9537V6.03001L21.7137 5.81981L21.5537 5.24152ZM22.2532 5.02739L22.0635 4.45818L22.0635 4.45818L22.2532 5.02739ZM23.5023 5.08449L23.0947 5.52475L23.1031 5.53256L23.1119 5.54005L23.5023 5.08449ZM23.5023 6.14089L23.901 6.58934L23.902 6.58845L23.5023 6.14089ZM22.9527 6.31934L22.9407 5.71946L22.94 5.71947L22.9527 6.31934ZM22.2461 6.21227L22.0563 6.78163L22.0696 6.78574L22.2461 6.21227ZM21.5466 5.99813L21.7065 5.41985L20.9505 5.21074L20.9466 5.99513L21.5466 5.99813ZM21.5394 7.4257L20.9394 7.4227V7.4257H21.5394ZM21.3396 7.98959L20.923 7.55761L20.9153 7.56533L21.3396 7.98959ZM20.8185 7.58231C20.6994 7.58231 20.6728 7.55247 20.6706 7.55045L19.8529 8.42873C20.1267 8.68367 20.4713 8.78231 20.8185 8.78231V7.58231ZM20.6782 7.55768C20.6837 7.56292 20.6821 7.56506 20.6774 7.55182C20.6716 7.53558 20.6619 7.49694 20.6619 7.4257H19.4619C19.4619 7.77909 19.5593 8.1457 19.8453 8.4215L20.6782 7.55768ZM20.6619 7.4257V6.41927H19.4619V7.4257H20.6619ZM20.6619 6.41927C20.6619 5.95822 20.7345 5.69977 20.8089 5.57181L19.7717 4.96834C19.5416 5.36382 19.4619 5.8715 19.4619 6.41927H20.6619ZM20.8089 5.57181C20.9117 5.39511 21.0225 5.29887 21.1324 5.24502L20.6046 4.16735C20.2482 4.34191 19.9734 4.6216 19.7717 4.96834L20.8089 5.57181ZM21.4487 4.55349L21.413 4.41787L20.2525 4.72326L20.2882 4.85888L21.4487 4.55349ZM20.8328 3.97057H20.7114V5.17057H20.8328V3.97057ZM20.7114 3.97057C20.6651 3.97057 20.6439 3.96334 20.6385 3.96121C20.6357 3.96006 20.6346 3.95933 20.6343 3.95914C20.634 3.95894 20.6325 3.95787 20.6295 3.95472L19.7513 4.77242C20.0118 5.05225 20.3553 5.17057 20.7114 5.17057V3.97057ZM20.6438 3.97061C20.6355 3.96107 20.6004 3.91679 20.5976 3.77364L19.3978 3.79717C19.4045 4.1394 19.4978 4.48056 19.737 4.75653L20.6438 3.97061ZM20.5975 3.77341C20.5951 3.64962 20.6256 3.61974 20.6292 3.61576L19.7373 2.813C19.4839 3.09453 19.3907 3.44534 19.3978 3.7974L20.5975 3.77341ZM20.6219 3.62377C20.6307 3.61437 20.6358 3.61179 20.6407 3.60982C20.647 3.60724 20.6676 3.60025 20.7114 3.60025V2.40025C20.3485 2.40025 20.0057 2.5253 19.7446 2.80499L20.6219 3.62377ZM20.7114 3.60025H23.2097V2.40025H20.7114V3.60025ZM23.2097 3.60025C23.3815 3.60025 23.3987 3.6412 23.3728 3.61705C23.3605 3.60554 23.3581 3.59624 23.3606 3.60331C23.3643 3.61369 23.3734 3.64692 23.3734 3.71403H24.5734C24.5734 3.37283 24.4802 3.00955 24.1922 2.74033C23.9118 2.47826 23.547 2.40025 23.2097 2.40025V3.60025ZM23.3734 3.71403C23.3734 3.76356 23.3663 3.78938 23.3627 3.79932C23.3598 3.8074 23.3578 3.80956 23.3557 3.81177L24.22 4.64414C24.4724 4.38208 24.5734 4.05026 24.5734 3.71403H23.3734ZM23.3557 3.81177C23.3699 3.79698 23.378 3.79753 23.3608 3.80328C23.3403 3.8101 23.2937 3.82067 23.2097 3.82067V5.02067C23.5581 5.02067 23.9394 4.9356 24.22 4.64414L23.3557 3.81177ZM23.2097 3.82067H21.8178V5.02067H23.2097V3.82067ZM21.8178 3.82067C21.6118 3.82067 21.3554 3.88474 21.1649 4.10606C20.9893 4.31013 20.9537 4.55304 20.9537 4.7276H22.1537C22.1537 4.69754 22.1621 4.78699 22.0745 4.88875C21.9721 5.00777 21.8478 5.02067 21.8178 5.02067V3.82067ZM20.9537 4.7276V5.24152H22.1537V4.7276H20.9537ZM21.7137 5.81981C21.9483 5.75492 22.1914 5.68045 22.443 5.5966L22.0635 4.45818C21.8297 4.53612 21.6065 4.60441 21.3938 4.66324L21.7137 5.81981ZM22.443 5.5966C22.6331 5.53321 22.8021 5.50605 22.9527 5.50605V4.30605C22.6561 4.30605 22.3587 4.35977 22.0635 4.45818L22.443 5.5966ZM22.9527 5.50605C23.023 5.50605 23.0637 5.51497 23.0833 5.52133C23.1006 5.52694 23.1004 5.53003 23.0947 5.52475L23.91 4.64424C23.6359 4.39048 23.2868 4.30605 22.9527 4.30605V5.50605ZM23.1119 5.54005C23.1056 5.53467 23.0999 5.5283 23.0956 5.52201C23.0914 5.51589 23.0903 5.51263 23.0911 5.51453C23.0929 5.51945 23.1022 5.54793 23.1022 5.61269H24.3022C24.3022 5.26523 24.2019 4.89385 23.8928 4.62894L23.1119 5.54005ZM23.1022 5.61269C23.1022 5.67343 23.0934 5.70113 23.0911 5.70728C23.09 5.71 23.0903 5.70843 23.093 5.70445C23.0958 5.70036 23.0993 5.69639 23.1027 5.69333L23.902 6.58845C24.1988 6.32338 24.3022 5.96145 24.3022 5.61269H23.1022ZM23.1037 5.69245C23.1168 5.68086 23.0905 5.71646 22.9407 5.71946L22.9647 6.91922C23.2908 6.9127 23.631 6.82934 23.901 6.58934L23.1037 5.69245ZM22.94 5.71947C22.7896 5.72267 22.6182 5.699 22.4225 5.6388L22.0696 6.78574C22.3689 6.87782 22.6686 6.92552 22.9655 6.9192L22.94 5.71947ZM22.4358 5.64306C22.1843 5.55921 21.9411 5.48474 21.7065 5.41985L21.3866 6.57642C21.5993 6.63525 21.8225 6.70354 22.0563 6.78148L22.4358 5.64306ZM20.9466 5.99513L20.9394 7.4227L22.1394 7.4287L22.1466 6.00113L20.9466 5.99513ZM20.9394 7.4257C20.9394 7.49694 20.9297 7.53558 20.9239 7.55182C20.9192 7.56506 20.9177 7.56292 20.9231 7.55768L21.7561 8.4215C22.0421 8.1457 22.1394 7.77909 22.1394 7.4257H20.9394ZM20.9153 7.56533C20.9135 7.56716 20.9121 7.5687 20.9048 7.57139C20.8955 7.57483 20.8696 7.58231 20.8185 7.58231V8.78231C21.1617 8.78231 21.5004 8.6773 21.7638 8.41385L20.9153 7.56533ZM24.4929 3.17155L24.8925 3.61912L24.8934 3.61829L24.4929 3.17155ZM25.5564 3.17155L25.1481 3.61131L25.1568 3.61912L25.5564 3.17155ZM25.8277 6.91178L25.4528 7.3803L25.4678 7.3923L25.4836 7.40332L25.8277 6.91178ZM26.0632 6.86895L26.3585 7.39132L26.3642 7.38797L26.0632 6.86895ZM26.6985 6.54061L26.9383 7.09075L26.9499 7.08539L26.6985 6.54061ZM28.0118 6.65482L28.4424 6.23693L28.4424 6.23693L28.0118 6.65482ZM27.9904 7.93963L27.5918 7.49114L27.5856 7.49681L27.9904 7.93963ZM24.9283 8.06097L24.7232 8.62496L24.7347 8.62887L24.9283 8.06097ZM24.4501 7.65411L23.9213 7.93785L23.9268 7.94766L24.4501 7.65411ZM24.893 3.67834C24.893 3.62916 24.9005 3.60918 24.9012 3.60759C24.9014 3.60686 24.9007 3.60891 24.8983 3.61231C24.8959 3.61573 24.8936 3.61811 24.8925 3.61912L24.0933 2.72399C23.8044 2.9819 23.693 3.33026 23.693 3.67834H24.893ZM24.8934 3.61829C24.9044 3.60845 24.9303 3.58597 25.0211 3.58597V2.38597C24.6836 2.38597 24.3574 2.48721 24.0924 2.72481L24.8934 3.61829ZM25.0211 3.58597C25.078 3.58597 25.1105 3.59386 25.1261 3.59927C25.1398 3.60401 25.1449 3.60821 25.1482 3.61123L25.9647 2.73188C25.6963 2.48265 25.3596 2.38597 25.0211 2.38597V3.58597ZM25.1568 3.61912C25.1557 3.61811 25.1534 3.61573 25.151 3.61231C25.1486 3.60891 25.1479 3.60686 25.1482 3.60759C25.1488 3.60918 25.1563 3.62916 25.1563 3.67834H26.3563C26.3563 3.33026 26.2449 2.9819 25.956 2.72399L25.1568 3.61912ZM25.1563 3.67834V6.71906H26.3563V3.67834H25.1563ZM25.1563 6.71906C25.1563 6.90099 25.2046 7.18172 25.4528 7.3803L26.2025 6.44326C26.3555 6.5657 26.3563 6.71795 26.3563 6.71906H25.1563ZM25.4836 7.40332C25.6815 7.54188 25.893 7.5412 26.0296 7.51638C26.1616 7.49238 26.2749 7.43849 26.3584 7.39129L25.768 6.34661C25.742 6.36127 25.7614 6.34545 25.8149 6.33573C25.8729 6.32518 26.0214 6.31499 26.1717 6.42024L25.4836 7.40332ZM26.3642 7.38797C26.5888 7.2577 26.7796 7.15979 26.9382 7.09063L26.4587 5.99059C26.2462 6.08322 26.0134 6.20421 25.7622 6.34993L26.3642 7.38797ZM26.9499 7.08539C27.0495 7.03943 27.1672 7.01213 27.3123 7.01213V5.81213C27.0101 5.81213 26.7186 5.87048 26.447 5.99583L26.9499 7.08539ZM27.3123 7.01213C27.5214 7.01213 27.5741 7.06534 27.5813 7.0727L28.4424 6.23693C28.1355 5.92071 27.7219 5.81213 27.3123 5.81213V7.01213ZM27.5813 7.0727C27.6122 7.10454 27.6474 7.15739 27.6474 7.29008H28.8474C28.8474 6.89934 28.7255 6.52867 28.4424 6.23693L27.5813 7.0727ZM27.6474 7.29008C27.6474 7.44123 27.6068 7.47785 27.5918 7.49118L28.389 8.38807C28.7167 8.09685 28.8474 7.70044 28.8474 7.29008H27.6474ZM27.5856 7.49681C27.582 7.50004 27.4959 7.56804 27.1838 7.56804V8.76804C27.6142 8.76804 28.0657 8.68376 28.3953 8.38244L27.5856 7.49681ZM27.1838 7.56804H25.7135V8.76804H27.1838V7.56804ZM25.7135 7.56804C25.4399 7.56804 25.2488 7.53632 25.1219 7.49306L24.7347 8.62887C25.0265 8.72837 25.3589 8.76804 25.7135 8.76804V7.56804ZM25.1333 7.49709C25.0596 7.47028 25.0128 7.43092 24.9733 7.36056L23.9268 7.94766C24.1062 8.2675 24.3782 8.49939 24.7232 8.62484L25.1333 7.49709ZM24.9788 7.37042C24.9425 7.30281 24.893 7.13577 24.893 6.80471H23.693C23.693 7.21599 23.7483 7.61521 23.9214 7.9378L24.9788 7.37042ZM24.893 6.80471V3.67834H23.693V6.80471H24.893ZM29.1613 7.86825L29.483 7.36177L29.483 7.36177L29.1613 7.86825ZM28.3619 6.94033L28.9074 6.69056L28.9074 6.69056L28.3619 6.94033ZM28.3619 4.22081L28.9074 4.47058L28.9085 4.46812L28.3619 4.22081ZM29.1613 3.28576L29.483 3.79226L29.4878 3.78914L29.1613 3.28576ZM31.7381 3.28576L31.4084 3.78715L31.4164 3.79224L31.7381 3.28576ZM32.5375 4.22081L31.9908 4.46812L31.992 4.47058L32.5375 4.22081ZM32.5375 6.94033L31.992 6.69056L31.992 6.69056L32.5375 6.94033ZM31.7381 7.86825L31.4164 7.36176L31.4133 7.36376L31.7381 7.86825ZM29.0971 5.88393L28.5681 6.1673L28.5726 6.17532L29.0971 5.88393ZM29.5182 6.19799L29.3019 6.75778L29.3132 6.76187L29.5182 6.19799ZM31.3812 6.19799L31.5904 6.76037L31.5974 6.75767L31.3812 6.19799ZM31.8023 5.88393L32.3269 6.17535L32.3312 6.16726L31.8023 5.88393ZM31.8023 5.05594L31.2825 5.35582L31.2878 5.36464L31.8023 5.05594ZM31.3812 4.76329L31.1719 5.32562L31.1797 5.32852L31.1876 5.3312L31.3812 4.76329ZM29.5182 4.76329L29.7118 5.33131L29.7232 5.32717L29.5182 4.76329ZM29.0971 5.05594L29.6116 5.36468L29.6168 5.35577L29.0971 5.05594ZM30.4533 7.60373C30.0328 7.60373 29.7197 7.51208 29.483 7.36177L28.8396 8.37473C29.3072 8.67171 29.8554 8.80373 30.4533 8.80373V7.60373ZM29.483 7.36177C29.2329 7.20292 29.0421 6.98471 28.9074 6.69056L27.8163 7.1901C28.0433 7.68586 28.3855 8.08627 28.8396 8.37473L29.483 7.36177ZM28.9074 6.69056C28.7684 6.38702 28.6906 6.02032 28.6906 5.577H27.4906C27.4906 6.16153 27.5936 6.70372 27.8163 7.1901L28.9074 6.69056ZM28.6906 5.577C28.6906 5.13933 28.7681 4.77481 28.9074 4.47058L27.8163 3.97105C27.594 4.45674 27.4906 4.99634 27.4906 5.577H28.6906ZM28.9085 4.46812C29.0438 4.16906 29.2347 3.94992 29.483 3.79224L28.8396 2.77928C28.3836 3.0689 28.0416 3.47313 27.8152 3.97351L28.9085 4.46812ZM29.4878 3.78914C29.7238 3.6361 30.0351 3.54314 30.4533 3.54314V2.34314C29.8531 2.34314 29.3031 2.4786 28.8348 2.78238L29.4878 3.78914ZM30.4533 3.54314C30.8718 3.54314 31.179 3.63621 31.4084 3.78709L32.0677 2.78442C31.6024 2.47848 31.0531 2.34314 30.4533 2.34314V3.54314ZM31.4164 3.79224C31.6647 3.94992 31.8555 4.16906 31.9908 4.46812L33.0842 3.97351C32.8578 3.47313 32.5157 3.0689 32.0597 2.77928L31.4164 3.79224ZM31.992 4.47058C32.1312 4.77481 32.2087 5.13933 32.2087 5.577H33.4087C33.4087 4.99634 33.3054 4.45674 33.083 3.97105L31.992 4.47058ZM32.2087 5.577C32.2087 6.02032 32.1309 6.38702 31.992 6.69056L33.083 7.1901C33.3057 6.70372 33.4087 6.16153 33.4087 5.577H32.2087ZM31.992 6.69056C31.8573 6.98471 31.6665 7.20292 31.4164 7.36177L32.0597 8.37473C32.5139 8.08627 32.8561 7.68586 33.083 7.1901L31.992 6.69056ZM31.4133 7.36376C31.1831 7.51196 30.8741 7.60373 30.4533 7.60373V8.80373C31.0508 8.80373 31.5983 8.67183 32.0629 8.37273L31.4133 7.36376ZM28.39 5.4628C28.39 5.71168 28.4513 5.94912 28.5682 6.16726L29.626 5.6006C29.6001 5.55226 29.59 5.50895 29.59 5.4628H28.39ZM28.5726 6.17532C28.74 6.47674 29.0276 6.65168 29.302 6.75767L29.7344 5.63832C29.6671 5.61229 29.6308 5.58994 29.6146 5.57783C29.5996 5.56667 29.6089 5.56974 29.6216 5.59254L28.5726 6.17532ZM29.3132 6.76187C29.6225 6.87437 30.0187 6.9122 30.4533 6.9122V5.7122C30.0598 5.7122 29.8326 5.67389 29.7232 5.63412L29.3132 6.76187ZM30.4533 6.9122C30.8865 6.9122 31.283 6.8747 31.5904 6.76033L31.1719 5.63566C31.0701 5.67356 30.848 5.7122 30.4533 5.7122V6.9122ZM31.5974 6.75767C31.8717 6.65168 32.1593 6.47674 32.3268 6.17532L31.2778 5.59254C31.2905 5.56974 31.2998 5.56667 31.2848 5.57783C31.2686 5.58994 31.2323 5.61229 31.1649 5.63832L31.5974 6.75767ZM32.3312 6.16726C32.4481 5.94912 32.5094 5.71168 32.5094 5.4628H31.3094C31.3094 5.50895 31.2993 5.55226 31.2734 5.6006L32.3312 6.16726ZM32.5094 5.4628C32.5094 5.21272 32.4495 4.96842 32.3168 4.74724L31.2878 5.36464C31.2979 5.38139 31.3094 5.40832 31.3094 5.4628H32.5094ZM32.322 4.75611C32.1473 4.45319 31.8495 4.28904 31.5748 4.19538L31.1876 5.3312C31.254 5.35385 31.2879 5.37355 31.3011 5.3827C31.3128 5.39082 31.2989 5.38407 31.2826 5.35577L32.322 4.75611ZM31.5904 4.20096C31.283 4.08658 30.8865 4.04908 30.4533 4.04908V5.24908C30.848 5.24908 31.0701 5.28773 31.1719 5.32562L31.5904 4.20096ZM30.4533 4.04908C30.0187 4.04908 29.6225 4.08691 29.3132 4.19941L29.7232 5.32717C29.8326 5.28739 30.0598 5.24908 30.4533 5.24908V4.04908ZM29.3246 4.19538C29.0499 4.28904 28.7521 4.45319 28.5774 4.75611L29.6168 5.35577C29.6004 5.38407 29.5866 5.39082 29.5983 5.3827C29.6114 5.37355 29.6453 5.35385 29.7118 5.3312L29.3246 4.19538ZM28.5826 4.74724C28.4499 4.96842 28.39 5.21272 28.39 5.4628H29.59C29.59 5.40832 29.6015 5.38139 29.6116 5.36464L28.5826 4.74724ZM34.1662 7.86825L34.4878 7.36177L34.4878 7.36177L34.1662 7.86825ZM33.3667 6.94033L33.9123 6.69056L33.9123 6.69056L33.3667 6.94033ZM33.3667 4.22081L33.9123 4.47058L33.9134 4.46812L33.3667 4.22081ZM34.1662 3.28576L34.4879 3.79226L34.4927 3.78914L34.1662 3.28576ZM36.7429 3.28576L36.4132 3.78715L36.4212 3.79224L36.7429 3.28576ZM37.5423 4.22081L36.9957 4.46812L36.9968 4.47058L37.5423 4.22081ZM37.5423 6.94033L36.9968 6.69056L36.9968 6.69056L37.5423 6.94033ZM36.7429 7.86825L36.4212 7.36176L36.4181 7.36376L36.7429 7.86825ZM34.1019 5.88393L33.573 6.1673L33.5774 6.17532L34.1019 5.88393ZM34.523 6.19799L34.3068 6.75778L34.318 6.76187L34.523 6.19799ZM36.386 6.19799L36.5953 6.76037L36.6023 6.75767L36.386 6.19799ZM36.8072 5.88393L37.3317 6.17535L37.336 6.16726L36.8072 5.88393ZM36.8072 5.05594L36.2874 5.35582L36.2927 5.36464L36.8072 5.05594ZM36.386 4.76329L36.1768 5.32562L36.1846 5.32852L36.1924 5.3312L36.386 4.76329ZM34.523 4.76329L34.7167 5.33131L34.7281 5.32717L34.523 4.76329ZM34.1019 5.05594L34.6165 5.36468L34.6216 5.35577L34.1019 5.05594ZM35.4581 7.60373C35.0376 7.60373 34.7245 7.51208 34.4878 7.36177L33.8445 8.37473C34.3121 8.67171 34.8602 8.80373 35.4581 8.80373V7.60373ZM34.4878 7.36177C34.2377 7.20292 34.0469 6.98471 33.9123 6.69056L32.8212 7.1901C33.0482 7.68586 33.3903 8.08627 33.8445 8.37473L34.4878 7.36177ZM33.9123 6.69056C33.7733 6.38702 33.6955 6.02032 33.6955 5.577H32.4955C32.4955 6.16153 32.5985 6.70372 32.8212 7.1901L33.9123 6.69056ZM33.6955 5.577C33.6955 5.13933 33.773 4.77481 33.9123 4.47058L32.8212 3.97105C32.5988 4.45674 32.4955 4.99634 32.4955 5.577H33.6955ZM33.9134 4.46812C34.0487 4.16906 34.2396 3.94992 34.4878 3.79224L33.8445 2.77928C33.3885 3.0689 33.0464 3.47313 32.8201 3.97351L33.9134 4.46812ZM34.4927 3.78914C34.7286 3.6361 35.0399 3.54314 35.4581 3.54314V2.34314C34.858 2.34314 34.308 2.4786 33.8396 2.78238L34.4927 3.78914ZM35.4581 3.54314C35.8766 3.54314 36.1838 3.63621 36.4133 3.78709L37.0726 2.78442C36.6073 2.47848 36.0579 2.34314 35.4581 2.34314V3.54314ZM36.4212 3.79224C36.6695 3.94992 36.8604 4.16906 36.9957 4.46812L38.089 3.97351C37.8626 3.47313 37.5206 3.0689 37.0646 2.77928L36.4212 3.79224ZM36.9968 4.47058C37.1361 4.77481 37.2136 5.13933 37.2136 5.577H38.4136C38.4136 4.99634 38.3103 4.45674 38.0879 3.97105L36.9968 4.47058ZM37.2136 5.577C37.2136 6.02032 37.1358 6.38702 36.9968 6.69056L38.0879 7.1901C38.3106 6.70372 38.4136 6.16153 38.4136 5.577H37.2136ZM36.9968 6.69056C36.8621 6.98471 36.6713 7.20292 36.4212 7.36177L37.0646 8.37473C37.5188 8.08627 37.8609 7.68586 38.0879 7.1901L36.9968 6.69056ZM36.4181 7.36376C36.1879 7.51196 35.8789 7.60373 35.4581 7.60373V8.80373C36.0556 8.80373 36.6031 8.67183 37.0677 8.37273L36.4181 7.36376ZM33.3948 5.4628C33.3948 5.71168 33.4562 5.94912 33.573 6.16726L34.6308 5.6006C34.6049 5.55226 34.5948 5.50895 34.5948 5.4628H33.3948ZM33.5774 6.17532C33.7449 6.47674 34.0325 6.65168 34.3068 6.75767L34.7393 5.63832C34.6719 5.61229 34.6357 5.58994 34.6194 5.57783C34.6045 5.56667 34.6137 5.56974 34.6264 5.59254L33.5774 6.17532ZM34.318 6.76187C34.6274 6.87437 35.0235 6.9122 35.4581 6.9122V5.7122C35.0647 5.7122 34.8375 5.67389 34.7281 5.63412L34.318 6.76187ZM35.4581 6.9122C35.8913 6.9122 36.2879 6.8747 36.5953 6.76033L36.1768 5.63566C36.0749 5.67356 35.8529 5.7122 35.4581 5.7122V6.9122ZM36.6023 6.75767C36.8766 6.65168 37.1642 6.47674 37.3316 6.17532L36.2827 5.59254C36.2953 5.56974 36.3046 5.56667 36.2896 5.57783C36.2734 5.58994 36.2371 5.61229 36.1698 5.63832L36.6023 6.75767ZM37.336 6.16726C37.4529 5.94912 37.5142 5.71168 37.5142 5.4628H36.3142C36.3142 5.50895 36.3042 5.55226 36.2783 5.6006L37.336 6.16726ZM37.5142 5.4628C37.5142 5.21272 37.4544 4.96842 37.3216 4.74724L36.2927 5.36464C36.3027 5.38139 36.3142 5.40832 36.3142 5.4628H37.5142ZM37.3269 4.75611C37.1521 4.45319 36.8543 4.28904 36.5796 4.19538L36.1924 5.3312C36.2589 5.35385 36.2928 5.37355 36.3059 5.3827C36.3176 5.39082 36.3038 5.38407 36.2874 5.35577L37.3269 4.75611ZM36.5953 4.20096C36.2879 4.08658 35.8913 4.04908 35.4581 4.04908V5.24908C35.8529 5.24908 36.0749 5.28773 36.1768 5.32562L36.5953 4.20096ZM35.4581 4.04908C35.0235 4.04908 34.6274 4.08691 34.318 4.19941L34.7281 5.32717C34.8375 5.28739 35.0647 5.24908 35.4581 5.24908V4.04908ZM34.3294 4.19538C34.0547 4.28904 33.757 4.45319 33.5822 4.75611L34.6216 5.35577C34.6053 5.38407 34.5914 5.39082 34.6031 5.3827C34.6163 5.37355 34.6502 5.35385 34.7166 5.3312L34.3294 4.19538ZM33.5874 4.74724C33.4547 4.96842 33.3948 5.21272 33.3948 5.4628H34.5948C34.5948 5.40832 34.6064 5.38139 34.6164 5.36464L33.5874 4.74724ZM41.0348 7.96818L40.5966 8.37813L40.6034 8.38519L41.0348 7.96818ZM40.8135 7.39715L41.4131 7.37268L41.4129 7.36895L40.8135 7.39715ZM40.5066 6.54061L40.094 6.97618L40.0998 6.98175L40.1059 6.98716L40.5066 6.54061ZM39.6358 6.28365V5.68365H39.0358V6.28365H39.6358ZM39.4359 7.98959L39.0195 7.55768L39.0195 7.55768L39.4359 7.98959ZM38.3581 7.98959L38.7746 7.55768L38.7746 7.55768L38.3581 7.98959ZM38.3795 5.27008L37.8609 4.96831L37.8568 4.97547L38.3795 5.27008ZM38.9577 4.70619L39.2216 5.24502L39.663 5.02882L39.5379 4.55349L38.9577 4.70619ZM38.922 4.57057L39.5023 4.41787L39.3845 3.97057H38.922V4.57057ZM38.2867 4.36357L37.8333 4.75653L37.8403 4.7646L37.8476 4.77242L38.2867 4.36357ZM38.0869 3.78541L37.4869 3.79741L37.4873 3.80892L38.0869 3.78541ZM41.8628 3.35714L42.2341 2.88584L42.2341 2.88584L41.8628 3.35714ZM42.1911 5.24866L42.7251 5.52247L42.7278 5.51699L42.1911 5.24866ZM41.8271 5.67693L41.4906 5.18018L41.4906 5.18018L41.8271 5.67693ZM41.3632 5.85538L41.293 5.25949L40.7632 5.32183V5.85538H41.3632ZM41.3632 5.94817H40.7632V6.42032L41.2221 6.53135L41.3632 5.94817ZM42.0912 6.41927L41.6191 6.78958L41.6236 6.7952L42.0912 6.41927ZM42.1697 7.98959L42.5786 8.42873L42.5791 8.42822L42.1697 7.98959ZM39.6572 5.39856L39.2621 5.8501L39.2621 5.8501L39.6572 5.39856ZM40.9777 4.54915L40.5534 4.97342L40.5534 4.97342L40.9777 4.54915ZM39.6572 4.45636L39.2972 3.97636L39.2972 3.97636L39.6572 4.45636ZM41.5987 7.58231C41.4887 7.58231 41.4691 7.55416 41.4662 7.55116L40.6034 8.38519C40.8765 8.66771 41.2328 8.78231 41.5987 8.78231V7.58231ZM41.473 7.55828C41.4482 7.53183 41.4177 7.48582 41.413 7.37268L40.214 7.42162C40.2285 7.77482 40.3454 8.10949 40.5966 8.37807L41.473 7.55828ZM41.4129 7.36895C41.3908 6.89996 41.2688 6.41839 40.9074 6.09406L40.1059 6.98716C40.1156 6.99593 40.1982 7.08538 40.2142 7.42535L41.4129 7.36895ZM40.9193 6.10504C40.6033 5.80571 40.2006 5.68365 39.7786 5.68365V6.88365C39.9656 6.88365 40.0483 6.9329 40.094 6.97618L40.9193 6.10504ZM39.7786 5.68365H39.6358V6.88365H39.7786V5.68365ZM39.0358 6.28365V7.4257H40.2358V6.28365H39.0358ZM39.0358 7.4257C39.0358 7.49694 39.0261 7.53558 39.0203 7.55182C39.0156 7.56506 39.014 7.56292 39.0195 7.55768L39.8524 8.4215C40.1384 8.1457 40.2358 7.77909 40.2358 7.4257H39.0358ZM39.0195 7.55768C39.0181 7.55896 39.0016 7.58231 38.9077 7.58231V8.78231C39.2517 8.78231 39.5873 8.67718 39.8524 8.4215L39.0195 7.55768ZM38.9077 7.58231C38.8456 7.58231 38.8104 7.5737 38.794 7.56793C38.7798 7.56295 38.7761 7.55908 38.7746 7.55768L37.9416 8.4215C38.2138 8.68397 38.5615 8.78231 38.9077 8.78231V7.58231ZM38.7746 7.55768C38.78 7.56292 38.7785 7.56506 38.7738 7.55182C38.768 7.53558 38.7583 7.49694 38.7583 7.4257H37.5583C37.5583 7.77909 37.6556 8.1457 37.9416 8.4215L38.7746 7.55768ZM38.7583 7.4257V6.41927H37.5583V7.4257H38.7583ZM38.7583 6.41927C38.7583 5.95625 38.8289 5.69473 38.9022 5.56468L37.8568 4.97547C37.6351 5.36887 37.5583 5.87347 37.5583 6.41927H38.7583ZM38.8981 5.57181C39.001 5.39511 39.1117 5.29887 39.2216 5.24502L38.6938 4.16735C38.3374 4.34191 38.0627 4.6216 37.8609 4.96834L38.8981 5.57181ZM39.5379 4.55349L39.5023 4.41787L38.3418 4.72326L38.3775 4.85888L39.5379 4.55349ZM38.922 3.97057H38.8078V5.17057H38.922V3.97057ZM38.8078 3.97057C38.7614 3.97057 38.7403 3.96334 38.7349 3.96121C38.732 3.96006 38.7309 3.95933 38.7307 3.95914C38.7304 3.95894 38.7288 3.95787 38.7259 3.95472L37.8476 4.77242C38.1081 5.05225 38.4517 5.17057 38.8078 5.17057V3.97057ZM38.7402 3.97061C38.7285 3.95715 38.6921 3.90784 38.6864 3.7619L37.4873 3.80892C37.5007 4.14834 37.5976 4.48448 37.8333 4.75653L38.7402 3.97061ZM38.6868 3.77341C38.6844 3.65624 38.7136 3.62191 38.7249 3.60941L37.8343 2.80507C37.5792 3.08761 37.4798 3.43872 37.487 3.7974L38.6868 3.77341ZM38.7249 3.60941C38.7348 3.59837 38.7402 3.59605 38.7434 3.59469C38.748 3.59275 38.7664 3.58597 38.8078 3.58597V2.38597C38.4384 2.38597 38.0936 2.51804 37.8343 2.80507L38.7249 3.60941ZM38.8078 3.58597H40.628V2.38597H38.8078V3.58597ZM40.628 3.58597C41.0398 3.58597 41.3093 3.68487 41.4915 3.82843L42.2341 2.88584C41.7882 2.53451 41.2344 2.38597 40.628 2.38597V3.58597ZM41.4915 3.82843C41.6138 3.92484 41.7339 4.11332 41.7339 4.54202H42.9339C42.9339 3.88577 42.7399 3.28432 42.2341 2.88584L41.4915 3.82843ZM41.7339 4.54202C41.7339 4.75816 41.6969 4.89554 41.6545 4.98033L42.7278 5.51699C42.8757 5.2211 42.9339 4.88738 42.9339 4.54202H41.7339ZM41.6573 4.97487C41.6002 5.0861 41.5414 5.14576 41.4906 5.18018L42.1636 6.17368C42.4078 6.00825 42.5917 5.78239 42.725 5.52245L41.6573 4.97487ZM41.4906 5.18018C41.4151 5.23136 41.3507 5.25271 41.293 5.25949L41.4333 6.45127C41.6992 6.41998 41.9441 6.32237 42.1636 6.17368L41.4906 5.18018ZM40.7632 5.85538V5.94817H41.9632V5.85538H40.7632ZM41.2221 6.53135C41.3837 6.57045 41.5106 6.65117 41.6191 6.78955L42.5633 6.04898C42.2912 5.70199 41.9327 5.46865 41.5042 5.36499L41.2221 6.53135ZM41.6236 6.7952C41.7094 6.90189 41.7839 7.08139 41.7839 7.39715H42.9839C42.9839 6.89444 42.8633 6.42201 42.5588 6.04333L41.6236 6.7952ZM41.7839 7.39715C41.7839 7.47493 41.7731 7.51813 41.7661 7.5376C41.7602 7.55384 41.7571 7.55401 41.7603 7.55096L42.5791 8.42822C42.8807 8.1467 42.9839 7.76618 42.9839 7.39715H41.7839ZM41.7609 7.55045C41.7582 7.55292 41.7515 7.55893 41.7316 7.56564C41.7096 7.57307 41.6679 7.58231 41.5987 7.58231V8.78231C41.948 8.78231 42.3004 8.68768 42.5786 8.42873L41.7609 7.55045ZM39.0001 5.19156C39.0001 5.27536 39.0072 5.37698 39.036 5.48138C39.0643 5.58405 39.1252 5.73027 39.2621 5.8501L40.0523 4.94701C40.1512 5.03354 40.1835 5.1286 40.1928 5.16227C40.2025 5.19767 40.2001 5.21244 40.2001 5.19156H39.0001ZM39.2621 5.8501C39.4786 6.0395 39.7515 6.04852 39.8713 6.04852V4.84852C39.8471 4.84852 39.8521 4.84624 39.8756 4.85173C39.8957 4.8564 39.9715 4.8763 40.0523 4.94701L39.2621 5.8501ZM39.8713 6.04852H40.5423V4.84852H39.8713V6.04852ZM40.5423 6.04852C40.8142 6.04852 41.1496 5.98951 41.402 5.73717L40.5534 4.88864C40.5704 4.87173 40.5869 4.85995 40.6003 4.85226C40.6133 4.84478 40.6217 4.84206 40.6226 4.84176C40.6234 4.84151 40.6178 4.84332 40.604 4.84513C40.5902 4.84694 40.5699 4.84852 40.5423 4.84852V6.04852ZM41.402 5.73717C41.6328 5.5063 41.7133 5.2111 41.7133 4.9346H40.5133C40.5133 4.96038 40.5097 4.96187 40.5146 4.94804C40.5172 4.94095 40.5215 4.93111 40.5286 4.9199C40.5356 4.90861 40.5441 4.89797 40.5534 4.88864L41.402 5.73717ZM41.7133 4.9346C41.7133 4.65907 41.636 4.35892 41.402 4.12489L40.5534 4.97342C40.5432 4.96313 40.5342 4.95174 40.527 4.94011C40.5199 4.92859 40.5157 4.91886 40.5134 4.91247C40.5091 4.90028 40.5133 4.90456 40.5133 4.9346H41.7133ZM41.402 4.12489C41.1496 3.87255 40.8142 3.81354 40.5423 3.81354V5.01354C40.5699 5.01354 40.5902 5.01512 40.604 5.01693C40.6178 5.01874 40.6234 5.02055 40.6226 5.0203C40.6217 5.02 40.6133 5.01728 40.6003 5.0098C40.5869 5.00211 40.5704 4.99033 40.5534 4.97342L41.402 4.12489ZM40.5423 3.81354H39.8713V5.01354H40.5423V3.81354ZM39.8713 3.81354C39.7951 3.81354 39.7088 3.81845 39.6216 3.83589C39.5402 3.85217 39.4158 3.88742 39.2972 3.97636L40.0172 4.93636C39.9746 4.9683 39.9361 4.98641 39.9106 4.99637C39.885 5.00642 39.8658 5.01083 39.857 5.01259C39.8411 5.01576 39.8429 5.01354 39.8713 5.01354V3.81354ZM39.2972 3.97636C39.1302 4.10162 39.0639 4.26894 39.036 4.36997C39.0067 4.47617 39.0001 4.57997 39.0001 4.66336H40.2001C40.2001 4.6373 40.203 4.65188 40.1928 4.68908C40.1839 4.72111 40.1462 4.83965 40.0172 4.93636L39.2972 3.97636ZM39.0001 4.66336V5.19156H40.2001V4.66336H39.0001ZM44.1708 8.12521L44.045 8.71201L44.0571 8.71434L44.1708 8.12521ZM43.4284 7.88252L43.1647 8.42145L43.1715 8.42479L43.1784 8.42796L43.4284 7.88252ZM42.886 7.48994L42.4352 7.88606L42.4414 7.89285L42.886 7.48994ZM42.9288 6.31934L42.5172 5.88278L42.5172 5.88278L42.9288 6.31934ZM43.5141 6.09806L43.4886 6.69759L43.4979 6.69785L43.5141 6.09806ZM44.0423 6.21227L43.8168 6.76847L43.83 6.77344L44.0423 6.21227ZM44.5776 6.41213L44.3702 6.97515L44.3749 6.97685L44.5776 6.41213ZM45.5198 6.44068L45.187 5.94145L45.187 5.94145L45.5198 6.44068ZM45.477 6.01241L45.7928 5.50225L45.7928 5.50225L45.477 6.01241ZM45.0987 5.86965L44.956 6.45243L44.9632 6.4542L44.9705 6.45579L45.0987 5.86965ZM44.7489 5.784L44.8917 5.2012L44.8872 5.20015L44.7489 5.784ZM43.7782 5.49849L43.5634 6.05879L43.5716 6.06181L43.7782 5.49849ZM43.1001 5.07022L42.653 5.47029L42.6585 5.47649L42.6642 5.48254L43.1001 5.07022ZM43.1287 3.54986L43.5783 3.9472L43.5827 3.94203L43.1287 3.54986ZM43.8638 3.09304L43.6874 2.51957L43.6874 2.51957L43.8638 3.09304ZM45.9267 3.07162L45.768 3.65027L45.768 3.65027L45.9267 3.07162ZM46.6119 3.42138L46.2007 3.85834L46.2071 3.86419L46.6119 3.42138ZM46.669 4.52774L46.2371 4.11126L46.2368 4.11156L46.669 4.52774ZM45.734 4.64908L45.5498 5.22013L45.555 5.22177L45.734 4.64908ZM45.2629 4.51347L45.0936 5.08908L45.1035 5.09199L45.1134 5.09456L45.2629 4.51347ZM44.3635 4.5206L44.6549 5.0451L44.6658 5.03906L44.6764 5.03257L44.3635 4.5206ZM44.4063 4.9346L44.1756 5.48844L44.1756 5.48844L44.4063 4.9346ZM44.9702 5.10591L44.8222 5.68749L44.8345 5.69036L44.9702 5.10591ZM45.3699 5.1987L45.5135 4.61607L45.5056 4.61424L45.3699 5.1987ZM46.2336 5.49135L45.9822 6.03612L45.9822 6.03612L46.2336 5.49135ZM46.8118 5.94103L46.3303 6.29905L46.3303 6.29905L46.8118 5.94103ZM46.7618 7.55418L47.2382 7.91905L47.2418 7.91418L46.7618 7.55418ZM46.048 8.04669L45.853 7.47928L45.853 7.47928L46.048 8.04669ZM44.9774 7.60373C44.7504 7.60373 44.5196 7.58146 44.2845 7.53608L44.0571 8.71434C44.3644 8.77365 44.6713 8.80373 44.9774 8.80373V7.60373ZM44.2965 7.53853C44.0692 7.48983 43.8639 7.42207 43.6784 7.33708L43.1784 8.42796C43.4499 8.55235 43.7394 8.64638 44.0451 8.71189L44.2965 7.53853ZM43.6922 7.34359C43.5228 7.26071 43.4079 7.17234 43.3306 7.08703L42.4414 7.89285C42.6401 8.11209 42.8868 8.28544 43.1647 8.42145L43.6922 7.34359ZM43.3367 7.09387C43.2926 7.04373 43.279 7.00287 43.279 6.94747H42.079C42.079 7.3013 42.2033 7.62209 42.4353 7.88601L43.3367 7.09387ZM43.279 6.94747C43.279 6.82502 43.3118 6.78289 43.3404 6.75589L42.5172 5.88278C42.2127 6.16985 42.079 6.54647 42.079 6.94747H43.279ZM43.3404 6.75589C43.3922 6.70708 43.4307 6.69506 43.4886 6.69752L43.5396 5.49861C43.1502 5.48204 42.7985 5.61753 42.5172 5.88278L43.3404 6.75589ZM43.4979 6.69785C43.5967 6.70052 43.7021 6.72179 43.8169 6.76831L44.2677 5.65623C44.0304 5.56 43.7836 5.50513 43.5303 5.49828L43.4979 6.69785ZM43.83 6.77344C44.0077 6.84069 44.1878 6.90793 44.3702 6.97514L44.7851 5.84912C44.6058 5.78309 44.429 5.71709 44.2546 5.6511L43.83 6.77344ZM44.3749 6.97685C44.6214 7.06534 44.8755 7.11206 45.1344 7.11206V5.91206C45.0221 5.91206 44.905 5.89215 44.7804 5.84741L44.3749 6.97685ZM45.1344 7.11206C45.329 7.11206 45.6199 7.09511 45.8526 6.93991L45.187 5.94145C45.2183 5.92061 45.243 5.91072 45.2538 5.90686C45.2649 5.9029 45.2682 5.90285 45.2607 5.90425C45.2535 5.90558 45.2395 5.90765 45.2175 5.90931C45.1957 5.91096 45.1682 5.91206 45.1344 5.91206V7.11206ZM45.8526 6.93991C46.0789 6.78906 46.2269 6.5435 46.2269 6.24796H45.0269C45.0269 6.19696 45.0391 6.13121 45.0756 6.06543C45.1114 6.00104 45.1565 5.96181 45.187 5.94145L45.8526 6.93991ZM46.2269 6.24796C46.2269 5.89428 46.0215 5.64383 45.7928 5.50225L45.1612 6.52257C45.154 6.51809 45.1178 6.49409 45.0832 6.43982C45.0455 6.38053 45.0269 6.31176 45.0269 6.24796H46.2269ZM45.7928 5.50225C45.6197 5.39509 45.4252 5.32689 45.2269 5.28351L44.9705 6.45579C45.0767 6.47904 45.1344 6.50601 45.1612 6.52257L45.7928 5.50225ZM45.2414 5.28688L44.8917 5.20122L44.6062 6.36678L44.956 6.45243L45.2414 5.28688ZM44.8872 5.20015C44.5438 5.11883 44.2437 5.0301 43.9847 4.93516L43.5716 6.06181C43.8837 6.17625 44.2307 6.27787 44.6107 6.36785L44.8872 5.20015ZM43.993 4.93824C43.77 4.85277 43.6269 4.75396 43.536 4.6579L42.6642 5.48254C42.9064 5.7386 43.2154 5.92531 43.5634 6.05873L43.993 4.93824ZM43.5472 4.67014C43.5056 4.62365 43.4574 4.53772 43.4574 4.3493H42.2574C42.2574 4.76045 42.371 5.15514 42.653 5.47029L43.5472 4.67014ZM43.4574 4.3493C43.4574 4.1362 43.5131 4.02087 43.5782 3.94718L42.6791 3.15254C42.3825 3.48808 42.2574 3.90571 42.2574 4.3493H43.4574ZM43.5827 3.94203C43.6781 3.83158 43.8201 3.73425 44.0403 3.6665L43.6874 2.51957C43.2889 2.64217 42.9408 2.84938 42.6746 3.15769L43.5827 3.94203ZM44.0403 3.6665C44.2834 3.5917 44.5677 3.55028 44.8988 3.55028V2.35028C44.4686 2.35028 44.0629 2.40403 43.6874 2.51957L44.0403 3.6665ZM44.8988 3.55028C45.2494 3.55028 45.5366 3.58681 45.768 3.65027L46.0853 2.49298C45.7267 2.39464 45.3287 2.35028 44.8988 2.35028V3.55028ZM45.768 3.65027C46.0024 3.71452 46.132 3.79368 46.2007 3.8583L47.0231 2.98446C46.7682 2.74453 46.4411 2.59052 46.0853 2.49298L45.768 3.65027ZM46.2071 3.86419C46.2536 3.90679 46.2617 3.93351 46.2617 3.97813H47.4617C47.4617 3.58495 47.3033 3.24051 47.0168 2.97856L46.2071 3.86419ZM46.2617 3.97813C46.2617 4.04029 46.2531 4.07543 46.2474 4.09187C46.2424 4.10608 46.2385 4.10981 46.2371 4.11126L47.1009 4.94422C47.3634 4.67203 47.4617 4.32438 47.4617 3.97813H46.2617ZM46.2368 4.11156C46.2355 4.11297 46.2354 4.11284 46.2363 4.1122C46.2373 4.11156 46.2373 4.11174 46.2354 4.11248C46.2318 4.11387 46.2128 4.12046 46.1694 4.12046V5.32046C46.5111 5.32046 46.8447 5.2103 47.1012 4.94393L46.2368 4.11156ZM46.1694 4.12046C46.1007 4.12046 46.0161 4.10864 45.9129 4.0764L45.555 5.22177C45.7564 5.2847 45.9621 5.32046 46.1694 5.32046V4.12046ZM45.9182 4.07806C45.758 4.02639 45.5893 3.97788 45.4123 3.93237L45.1134 5.09456C45.2695 5.1347 45.4149 5.17661 45.5498 5.22011L45.9182 4.07806ZM45.4322 3.93785C45.2102 3.87256 44.979 3.84209 44.7418 3.84209V5.04209C44.8758 5.04209 44.992 5.0592 45.0936 5.08908L45.4322 3.93785ZM44.7418 3.84209C44.5298 3.84209 44.2737 3.8723 44.0506 4.00863L44.6764 5.03257C44.6464 5.0509 44.6305 5.05204 44.6442 5.0492C44.6575 5.04644 44.6883 5.04209 44.7418 5.04209V3.84209ZM44.0721 3.99611C43.8437 4.12301 43.635 4.36492 43.635 4.71332H44.835C44.835 4.78536 44.8139 4.866 44.7664 4.93729C44.7224 5.00323 44.6737 5.03464 44.6549 5.0451L44.0721 3.99611ZM43.635 4.71332C43.635 4.88614 43.6875 5.06114 43.8034 5.21089C43.9131 5.35259 44.0527 5.43727 44.1756 5.48844L44.6371 4.38075C44.6457 4.38434 44.6997 4.40835 44.7523 4.47629C44.8111 4.55228 44.835 4.64044 44.835 4.71332H43.635ZM44.1756 5.48844C44.333 5.55403 44.5572 5.61991 44.8222 5.68736L45.1182 4.52445C44.8598 4.45866 44.7081 4.41033 44.6371 4.38075L44.1756 5.48844ZM44.8345 5.69036L45.2343 5.78316L45.5056 4.61424L45.1059 4.52145L44.8345 5.69036ZM45.2264 5.78128C45.5261 5.85512 45.7765 5.9412 45.9822 6.03612L46.485 4.94657C46.1958 4.81308 45.8704 4.70407 45.5135 4.61612L45.2264 5.78128ZM45.9822 6.03612C46.1548 6.1158 46.262 6.20723 46.3303 6.29905L47.2933 5.58301C47.0855 5.30367 46.8073 5.09531 46.485 4.94657L45.9822 6.03612ZM46.3303 6.29905C46.3713 6.35414 46.4188 6.46 46.4188 6.66909H47.6188C47.6188 6.27861 47.5283 5.89909 47.2933 5.58301L46.3303 6.29905ZM46.4188 6.66909C46.4188 6.93591 46.3566 7.09451 46.2818 7.19418L47.2418 7.91418C47.5097 7.55703 47.6188 7.12558 47.6188 6.66909H46.4188ZM46.2855 7.18934C46.1959 7.30635 46.0623 7.40732 45.853 7.47928L46.2431 8.61411C46.6428 8.47669 46.9851 8.24932 47.2381 7.91903L46.2855 7.18934ZM45.853 7.47928C45.6256 7.55745 45.3373 7.60373 44.9774 7.60373V8.80373C45.4358 8.80373 45.8614 8.74531 46.2431 8.61411L45.853 7.47928Z" fill="#AF2F28" mask="url(#path-16-outside-1_292_988)"/>
<path d="M37.4006 68.9936H28.4318C26.86 68.9936 25.5859 67.7195 25.5859 66.1477V57.179C25.5859 55.6072 26.8602 54.3331 28.4318 54.3331H37.4006C38.9724 54.3331 40.2465 55.6073 40.2465 57.179V66.1477C40.2465 67.7195 38.9724 68.9936 37.4006 68.9936Z" fill="url(#paint1_linear_292_988)"/>
<path opacity="0.5" d="M37.4007 54.3331H28.4318C26.86 54.3331 25.5859 55.6073 25.5859 57.1791V57.8294C25.5859 56.2574 26.86 54.9834 28.4318 54.9834H37.4007C38.9725 54.9834 40.2467 56.2574 40.2467 57.8294V57.1791C40.2466 55.6073 38.9724 54.3331 37.4007 54.3331Z" fill="white"/>
<path d="M37.4008 54.3329C38.9725 54.3329 40.2466 55.6071 40.2466 57.1788V66.1477C40.2466 67.7195 38.9725 68.9936 37.4008 68.9936H28.432C26.8602 68.9936 25.5861 67.7195 25.5861 66.1477V57.1788C25.5861 55.607 26.8603 54.3329 28.432 54.3329H37.4008ZM37.4008 52.9585H28.432C26.1048 52.9585 24.2117 54.8518 24.2117 57.1788V66.1477C24.2117 68.4748 26.105 70.368 28.432 70.368H37.4008C39.7279 70.368 41.6211 68.4747 41.6211 66.1477V57.1788C41.6211 54.8518 39.7278 52.9585 37.4008 52.9585Z" fill="#AF2F28"/>
<path d="M36.5584 66.9246H29.2743C28.38 66.9246 27.655 66.1996 27.655 65.3054V58.0214C27.655 57.1271 28.38 56.4022 29.2743 56.4022H36.5584C37.4527 56.4022 38.1777 57.1272 38.1777 58.0214V65.3054C38.1777 66.1996 37.4527 66.9246 36.5584 66.9246Z" fill="#FFE7C9"/>
<path d="M34.5312 58.4146L32.9111 60.0347L31.2962 58.4199C30.7982 57.9219 29.9906 57.9219 29.4926 58.4199C28.9946 58.9179 28.9946 59.7255 29.4926 60.2235L31.1075 61.8383L29.4977 63.4481C28.9997 63.9461 28.9997 64.7539 29.4978 65.252C29.9958 65.75 30.8034 65.75 31.3014 65.252L32.9112 63.6422L34.5261 65.257C35.0243 65.7552 35.8317 65.755 36.3297 65.257C36.8278 64.7589 36.8279 63.9515 36.3297 63.4533L34.7148 61.8384L36.3349 60.2183C36.833 59.7202 36.8329 58.9127 36.3349 58.4147C35.8368 57.9166 35.0293 57.9165 34.5312 58.4146Z" fill="#AF2F28"/>
<defs>
<linearGradient id="paint0_linear_292_988" x1="32.9973" y1="64.4266" x2="32.9973" y2="0.797134" gradientUnits="userSpaceOnUse">
<stop stop-color="#D83E31"/>
<stop offset="0.095" stop-color="#DC4734"/>
<stop offset="1" stop-color="#FF9753"/>
</linearGradient>
<linearGradient id="paint1_linear_292_988" x1="32.9162" y1="68.9936" x2="32.9162" y2="54.333" gradientUnits="userSpaceOnUse">
<stop stop-color="#D83E31"/>
<stop offset="0.095" stop-color="#DC4734"/>
<stop offset="1" stop-color="#FF9753"/>
</linearGradient>
</defs>
</svg>
