<svg width="35" height="28" viewBox="0 0 35 28" fill="none" xmlns="http://www.w3.org/2000/svg">
<g clip-path="url(#clip0_281_674)">
<path fill-rule="evenodd" clip-rule="evenodd" d="M32.7763 4.42379L25.0682 0L19.1225 3.00045L17.498 5.81953L15.8736 3.00045L9.9279 0L2.22372 4.42379L0 13.5592L8.16548 22.0716L17.498 27.5245L26.8345 22.0716L35 13.5592L32.7763 4.42379Z" fill="url(#paint0_linear_281_674)"/>
<path fill-rule="evenodd" clip-rule="evenodd" d="M2.22372 4.42377L6.39518 7.45182L5.72885 13.2004L0 13.5592L2.22372 4.42377Z" fill="url(#paint1_linear_281_674)"/>
<path fill-rule="evenodd" clip-rule="evenodd" d="M2.22363 4.42379L6.39509 7.45184L10.5626 5.2636L9.92781 0L2.22363 4.42379Z" fill="url(#paint2_linear_281_674)"/>
<path fill-rule="evenodd" clip-rule="evenodd" d="M9.92798 0L10.5628 5.2636L14.8091 6.86043L15.8737 3.00045L9.92798 0Z" fill="url(#paint3_linear_281_674)"/>
<path fill-rule="evenodd" clip-rule="evenodd" d="M0 13.5592L5.72885 13.2004L10.3774 19.426L8.16548 22.0716L0 13.5592Z" fill="url(#paint4_linear_281_674)"/>
<path fill-rule="evenodd" clip-rule="evenodd" d="M10.3774 19.426L8.16553 22.0716L17.4981 27.5245V23.215L10.3774 19.426Z" fill="url(#paint5_linear_281_674)"/>
<g style="mix-blend-mode:multiply" opacity="0.5">
<path fill-rule="evenodd" clip-rule="evenodd" d="M12.187 20.7153C13.8587 21.8627 17.0997 23.1165 17.1391 23.5344C17.1786 23.9523 17.013 26.6886 16.7449 26.6886C16.4767 26.6886 13.0308 24.595 12.5143 24.2244C11.9978 23.8538 10.5192 19.568 12.187 20.7153Z" fill="#960066"/>
</g>
<path style="mix-blend-mode:screen" fill-rule="evenodd" clip-rule="evenodd" d="M15.3769 25.7857C15.4991 25.3678 11.509 20.9322 11.0398 20.6207C10.5706 20.3092 8.61502 21.7247 8.89496 21.9336C9.1749 22.1426 15.2547 26.2037 15.3769 25.7857Z" fill="url(#paint6_linear_281_674)"/>
<g style="mix-blend-mode:overlay">
<path d="M0 13.5592L8.34685 21.8548L17.3403 27.2998L8.16548 22.0717L0 13.5592Z" fill="#FFFFD7"/>
</g>
<path fill-rule="evenodd" clip-rule="evenodd" d="M15.8736 3.00043L14.8091 6.8604L17.4981 9.93577V5.81951L15.8736 3.00043Z" fill="url(#paint7_linear_281_674)"/>
<g style="mix-blend-mode:multiply" opacity="0.3">
<path fill-rule="evenodd" clip-rule="evenodd" d="M15.8736 3.00043L14.8091 6.8604L17.4981 9.93577V5.81951L15.8736 3.00043Z" fill="#C42641"/>
</g>
<g style="mix-blend-mode:multiply" opacity="0.3">
<path fill-rule="evenodd" clip-rule="evenodd" d="M14.8091 6.86045L17.502 9.93187V5.81561C17.2773 8.09848 16.2403 8.05117 14.8091 6.86045Z" fill="#C42641"/>
</g>
<path fill-rule="evenodd" clip-rule="evenodd" d="M28.6047 7.44788L24.4333 5.25964L20.1909 6.85647L17.4979 9.92789L14.809 6.85647L10.5626 5.25964L6.39509 7.44788L5.72876 13.1964L10.3773 19.4221L17.4979 23.2111L24.6225 19.4221L29.2711 13.1964L28.6047 7.44788Z" fill="url(#paint8_linear_281_674)"/>
<path style="mix-blend-mode:screen" opacity="0.72" fill-rule="evenodd" clip-rule="evenodd" d="M28.6047 7.44788L24.4333 5.25964L20.1909 6.85647L17.4979 9.92789L14.809 6.85647L10.5626 5.25964L6.39509 7.44788L5.72876 13.1964L10.3773 19.4221L17.4979 23.2111L24.6225 19.4221L29.2711 13.1964L28.6047 7.44788Z" fill="url(#paint9_linear_281_674)"/>
<g style="mix-blend-mode:multiply" opacity="0.5">
<path fill-rule="evenodd" clip-rule="evenodd" d="M17.4586 18.8071C17.4586 18.8071 12.6287 18.6612 12.9599 19.2526C13.2911 19.844 16.9855 22.0914 17.3206 22.0125C17.6557 21.9337 24.2283 18.5035 24.2559 17.569C24.2835 16.6346 17.4586 18.8071 17.4586 18.8071Z" fill="#D93B66"/>
</g>
<g style="mix-blend-mode:multiply" opacity="0.3">
<path fill-rule="evenodd" clip-rule="evenodd" d="M28.6047 7.45187L24.2046 5.45288C24.2046 5.45288 20.3604 6.73822 20.2894 6.87228C20.2185 7.00633 17.5019 9.92793 17.5019 9.92793C17.5019 9.92793 20.5851 7.36118 22.1662 7.3809C22.663 7.3809 23.7157 6.88805 24.4372 7.62535C25.2613 8.4691 26.8029 10.5154 26.5821 12.7076C26.3968 14.7145 24.5792 16.8633 23.4634 17.8095C21.0977 19.8282 19.3589 20.7587 17.6162 20.9322C15.8735 21.1057 11.773 18.5941 11.773 18.5941C11.773 18.5941 15.085 20.1476 17.6399 19.8755C20.1948 19.6035 21.5314 17.2536 21.5314 14.955C21.5314 12.6563 15.4122 9.58885 14.9549 9.92398C14.4975 10.2591 13.086 12.1043 13.4921 13.4133C13.7168 14.127 16.3348 16.0392 17.1431 15.8027C17.8134 15.6055 16.6345 13.299 17.3245 13.2951C18.8464 13.2951 19.1697 14.1073 18.8582 15.6016C18.4048 17.7583 17.3363 17.1984 16.4925 17.3049C14.052 16.465 10.4561 15.4833 8.66613 13.5592C6.32412 11.0437 6.69474 7.9802 6.69474 7.34935C6.69474 7.34935 6.38721 11.7377 6.38721 12.8692C6.38721 14.0008 10.3694 19.4142 10.3694 19.4142C10.3694 19.4142 17.3481 23.2742 17.494 23.2072C17.6399 23.1402 24.4924 19.572 24.6146 19.4142C24.7369 19.2565 29.3223 13.1413 29.2395 13.0821C29.1567 13.023 28.6047 7.45187 28.6047 7.45187Z" fill="#C42641"/>
</g>
<path style="mix-blend-mode:color-dodge" fill-rule="evenodd" clip-rule="evenodd" d="M16.5242 11.785C15.9368 11.4893 14.6554 12.3803 15.4321 12.7628C16.2088 13.1452 17.5691 12.3054 16.5242 11.785Z" fill="url(#paint10_linear_281_674)"/>
<path style="mix-blend-mode:color-dodge" fill-rule="evenodd" clip-rule="evenodd" d="M22.3083 9.13144C21.3265 8.83178 19.6351 11.0082 20.8455 10.7085C22.056 10.4089 23.1875 9.3956 22.3083 9.13144Z" fill="url(#paint11_linear_281_674)"/>
<path style="mix-blend-mode:color-dodge" fill-rule="evenodd" clip-rule="evenodd" d="M17.1077 9.48237C17.1077 9.48237 11.3354 15.2664 9.13932 17.7622L8.51636 16.9303L16.1535 8.39417L17.1077 9.48237Z" fill="url(#paint12_linear_281_674)"/>
<path style="mix-blend-mode:color-dodge" fill-rule="evenodd" clip-rule="evenodd" d="M24.4372 5.25574C19.7493 9.43902 15.6685 15.3887 12.4433 20.4946L11.5247 20.0411C13.8903 17.5335 21.2397 6.47405 21.2397 6.47405L24.4372 5.25574Z" fill="url(#paint13_linear_281_674)"/>
<path style="mix-blend-mode:color-dodge" fill-rule="evenodd" clip-rule="evenodd" d="M14.0876 6.58446L6.58849 14.3478L5.99707 13.5553L12.8338 6.11133L14.0876 6.58446Z" fill="url(#paint14_linear_281_674)"/>
<path fill-rule="evenodd" clip-rule="evenodd" d="M32.7762 4.42377L28.6047 7.45182L29.2711 13.2004L34.9999 13.5592L32.7762 4.42377Z" fill="url(#paint15_linear_281_674)"/>
<path fill-rule="evenodd" clip-rule="evenodd" d="M32.7763 4.42379L28.6048 7.45184L24.4333 5.2636L25.0681 0L32.7763 4.42379Z" fill="url(#paint16_linear_281_674)"/>
<path fill-rule="evenodd" clip-rule="evenodd" d="M25.0683 0L24.4335 5.2636L20.191 6.86043L19.1226 3.00045L25.0683 0Z" fill="url(#paint17_linear_281_674)"/>
<path fill-rule="evenodd" clip-rule="evenodd" d="M34.9999 13.5592L29.2711 13.2004L24.6226 19.426L26.8345 22.0716L34.9999 13.5592Z" fill="url(#paint18_linear_281_674)"/>
<g style="mix-blend-mode:multiply" opacity="0.5">
<path d="M24.6226 19.4221L29.2474 13.09L29.6811 13.2201L24.733 19.5562L24.6226 19.4221Z" fill="#C42641"/>
</g>
<path fill-rule="evenodd" clip-rule="evenodd" d="M24.6226 19.426L26.8345 22.0716L17.498 27.5245V23.215L24.6226 19.426Z" fill="url(#paint19_linear_281_674)"/>
<path fill-rule="evenodd" clip-rule="evenodd" d="M19.1225 3.00043L20.191 6.8604L17.498 9.93577V5.81951L19.1225 3.00043Z" fill="url(#paint20_linear_281_674)"/>
<path style="mix-blend-mode:screen" opacity="0.72" d="M2.64551 4.37646C2.64551 4.37646 5.89041 6.51739 6.46606 6.40304C7.0417 6.2887 9.93175 4.98364 9.93175 4.98364C9.93175 4.98364 10.0973 0.68602 9.34034 0.729391C8.58332 0.772762 2.64551 4.37646 2.64551 4.37646Z" fill="url(#paint21_linear_281_674)"/>
<g style="mix-blend-mode:color-dodge">
<path fill-rule="evenodd" clip-rule="evenodd" d="M11.3789 19.8795L11.7101 20.3289L15.8737 22.3476L11.6588 20.0175L11.3789 19.8795Z" fill="#FF77BB"/>
</g>
<g style="mix-blend-mode:color-dodge">
<path fill-rule="evenodd" clip-rule="evenodd" d="M10.7244 21.6537C11.3828 22.0007 11.8165 21.4842 11.0398 21.2358C9.96738 20.8927 9.80572 21.1648 10.7244 21.6537Z" fill="#FF77BB"/>
</g>
<g style="mix-blend-mode:multiply" opacity="0.3">
<path fill-rule="evenodd" clip-rule="evenodd" d="M8.1655 22.0717L1.49038 14.7894C0.33515 13.6617 3.00441 13.646 6.09554 13.4449L10.3774 19.4261L8.1655 22.0717Z" fill="#D93B66"/>
</g>
<g style="mix-blend-mode:multiply" opacity="0.5">
<path fill-rule="evenodd" clip-rule="evenodd" d="M2.2237 14.9944C2.44055 14.7263 7.25074 16.055 7.74358 16.5951C8.23643 17.1353 9.71497 19.1501 9.73863 19.4221C9.76229 19.6942 8.25615 21.5315 8.16152 21.425C8.06689 21.3186 2.00685 15.2664 2.2237 14.9944Z" fill="#960066"/>
</g>
<path style="mix-blend-mode:screen" fill-rule="evenodd" clip-rule="evenodd" d="M4.15186 17.3048C4.15186 17.3048 7.57024 21.4881 7.98423 21.5669C8.39822 21.6458 9.83339 19.7769 9.83339 19.359C9.83339 18.9411 4.6447 17.3048 4.15186 17.3048Z" fill="url(#paint22_linear_281_674)"/>
<g style="mix-blend-mode:multiply" opacity="0.3">
<path d="M3.43033 11.367C0.96215 11.7929 0.145996 13.5474 0.145996 13.5474L5.60279 13.1847C5.75656 13.2004 5.89456 10.9728 3.43033 11.367Z" fill="#C42641"/>
</g>
<g style="mix-blend-mode:multiply" opacity="0.3">
<path fill-rule="evenodd" clip-rule="evenodd" d="M2.4011 4.66431L6.4109 7.45579L5.74457 12.885C5.74457 12.885 3.48536 12.609 2.49178 10.5745C1.4982 8.54005 2.4011 4.66431 2.4011 4.66431Z" fill="#C42641"/>
</g>
<path style="mix-blend-mode:screen" fill-rule="evenodd" clip-rule="evenodd" d="M2.29854 5.33061C2.12111 5.2833 0.449375 12.5065 0.551888 12.7154C0.6544 12.9244 3.17778 13.2043 3.02795 12.9954C2.87812 12.7864 2.5075 5.38581 2.29854 5.33061Z" fill="url(#paint23_linear_281_674)"/>
<g style="mix-blend-mode:multiply" opacity="0.3">
<path d="M6.27698 7.45182C6.27698 7.45182 2.68117 5.0073 2.55894 4.9521C2.43672 4.8969 2.59443 8.9343 3.95074 9.87662C5.30706 10.8189 6.27698 7.45182 6.27698 7.45182Z" fill="#C42641"/>
</g>
<path style="mix-blend-mode:screen" fill-rule="evenodd" clip-rule="evenodd" d="M5.6737 13.7603C5.25183 13.7839 0.410101 13.9653 0.67821 14.2334C0.946318 14.5015 5.80381 18.121 5.99701 17.9869C6.19021 17.8529 5.8669 13.7524 5.6737 13.7603Z" fill="url(#paint24_linear_281_674)"/>
<g style="mix-blend-mode:overlay">
<path d="M2.22363 4.42379C2.22363 4.42379 4.6445 5.25572 6.65531 4.42379C8.66613 3.59187 9.93175 0 9.93175 0L2.22363 4.42379Z" fill="#FFDDD9"/>
</g>
<g style="mix-blend-mode:multiply" opacity="0.3">
<path fill-rule="evenodd" clip-rule="evenodd" d="M15.8737 3.56824C15.8737 3.56824 15.1719 6.72246 15.2428 6.86045C15.3138 6.99845 17.2339 9.6204 17.2773 9.3996C17.3384 8.20178 17.3384 7.00161 17.2773 5.80379C17.1906 5.65791 16.0274 3.59584 15.8737 3.56824Z" fill="#C42641"/>
</g>
<g style="mix-blend-mode:multiply" opacity="0.3">
<path fill-rule="evenodd" clip-rule="evenodd" d="M10.1646 0.370614C10.1646 0.370614 10.7047 4.78652 10.8624 4.95212C11.0201 5.11771 13.9496 6.35574 14.1625 6.2414C14.3754 6.12706 15.7948 2.98073 15.6963 2.9965C15.5977 3.01227 10.3538 0.354843 10.1646 0.370614Z" fill="#C42641"/>
</g>
<g style="mix-blend-mode:screen" opacity="0.28">
<path fill-rule="evenodd" clip-rule="evenodd" d="M15.495 2.99654C15.6803 3.19367 14.7459 6.0719 14.4896 6.46618C14.2333 6.86045 12.9125 5.36614 12.3447 4.95215C11.777 4.53816 15.3057 2.7994 15.495 2.99654Z" fill="#FF8390"/>
</g>
<g style="mix-blend-mode:multiply" opacity="0.5">
<path fill-rule="evenodd" clip-rule="evenodd" d="M18.3852 24.1337C18.3852 24.1337 17.502 26.6373 18.4404 26.4284C19.3788 26.2194 25.8568 22.2964 25.6636 21.9652C25.4704 21.634 24.5675 19.9938 24.1811 19.9938C23.7947 19.9938 18.4404 23.7158 18.3852 24.1337Z" fill="#960066"/>
</g>
<g style="mix-blend-mode:multiply" opacity="0.3">
<path fill-rule="evenodd" clip-rule="evenodd" d="M24.6226 19.4221C24.3821 21.2713 22.1899 23.4871 17.502 27.4733V23.2151L24.6226 19.4221Z" fill="#C42641"/>
</g>
<path style="mix-blend-mode:screen" fill-rule="evenodd" clip-rule="evenodd" d="M17.498 27.5245L26.8345 22.0717L24.6226 19.4221L17.498 23.1441V27.5245Z" fill="url(#paint25_linear_281_674)"/>
<g style="mix-blend-mode:overlay" opacity="0.2">
<path fill-rule="evenodd" clip-rule="evenodd" d="M18.8584 26.7438C18.8584 26.7438 20.8968 24.2914 23.298 23.1401C25.6991 21.9888 26.8465 22.0716 26.8465 22.0716L18.8584 26.7438Z" fill="#FFFFD7"/>
</g>
<g style="mix-blend-mode:multiply" opacity="0.3">
<path fill-rule="evenodd" clip-rule="evenodd" d="M29.5471 13.7642C28.8965 13.7288 25.7778 18.2432 25.2534 19.2841C25.1706 19.4497 26.8857 21.5867 27.0947 21.3699C27.3036 21.153 33.7028 14.2729 33.8959 14.0087C34.0891 13.7445 30.1976 13.7958 29.5471 13.7642Z" fill="#C42641"/>
</g>
<g style="mix-blend-mode:overlay" opacity="0.2">
<path fill-rule="evenodd" clip-rule="evenodd" d="M26.8227 22.0717C26.8227 22.0717 25.6398 19.4142 28.5378 16.8593C30.407 15.2734 32.6193 14.1437 35 13.5592L26.8227 22.0717Z" fill="#FFFFD7"/>
</g>
<g style="mix-blend-mode:multiply" opacity="0.3">
<path fill-rule="evenodd" clip-rule="evenodd" d="M28.6047 7.44787L32.7762 4.42377L34.9999 13.5592L29.2711 13.1964L28.6047 7.44787Z" fill="#D93B66"/>
</g>
<g style="mix-blend-mode:screen">
<path d="M28.6047 7.44787L29.2711 13.2871C29.1686 8.71351 31.7866 6.49767 34.1956 10.2551L32.7604 4.42377L28.6047 7.44787Z" fill="#FF001A"/>
</g>
<g style="mix-blend-mode:multiply" opacity="0.5">
<path d="M28.6047 7.44787L32.7604 4.42377C32.7604 4.42377 33.1823 11.1265 31.3844 11.7021C29.5865 12.2778 28.6047 7.44787 28.6047 7.44787Z" fill="#C42641"/>
</g>
<path style="mix-blend-mode:screen" fill-rule="evenodd" clip-rule="evenodd" d="M25.5059 0.634807C25.2693 0.745204 24.875 5.0034 25.0682 5.10591C25.2614 5.20843 28.0923 7.0497 28.6167 6.86045C29.1411 6.67119 31.6684 4.66038 31.8143 4.30947C31.9602 3.95856 25.7306 0.524409 25.5059 0.634807Z" fill="url(#paint26_linear_281_674)"/>
<path opacity="0.55" fill-rule="evenodd" clip-rule="evenodd" d="M26.9214 2.56676C26.2984 2.43664 25.3443 3.13451 26.2866 3.35531C27.2289 3.57611 28.1831 2.82698 26.9214 2.56676Z" fill="#FF5EA0"/>
<path style="mix-blend-mode:color-dodge" opacity="0.72" fill-rule="evenodd" clip-rule="evenodd" d="M20.6523 2.6653C20.6523 2.6653 24.122 0.488889 24.2718 0.997507C24.4216 1.50612 24.1023 4.94028 23.6291 5.2557C23.156 5.57113 20.9678 6.06792 20.814 5.91021C20.6602 5.75249 20.6523 2.6653 20.6523 2.6653Z" fill="url(#paint27_linear_281_674)"/>
<g style="mix-blend-mode:multiply" opacity="0.3">
<path d="M17.6754 6.11129L17.6399 9.39563C18.3175 8.69328 18.9521 7.95069 19.5403 7.1719C19.7966 6.69483 19.1105 3.76929 18.8464 4.01768C18.5822 4.26608 17.6754 6.11129 17.6754 6.11129Z" fill="#C42641"/>
</g>
<g style="mix-blend-mode:overlay">
<path d="M19.2959 2.98466L24.9301 0.272034C24.9301 0.272034 24.4491 5.14136 24.2401 5.14136C24.0312 5.14136 20.1909 6.85646 20.1909 6.85646L19.2959 2.98466Z" fill="#FFFFD7"/>
</g>
<g style="mix-blend-mode:color-dodge">
<path fill-rule="evenodd" clip-rule="evenodd" d="M22.47 2.37747C21.0466 3.05957 21.5119 3.27248 22.1191 3.00043C22.7263 2.72838 23.5542 1.85308 22.47 2.37747Z" fill="#FF77BB"/>
</g>
<path style="mix-blend-mode:screen" opacity="0.72" fill-rule="evenodd" clip-rule="evenodd" d="M2.72829 4.58546C2.72829 4.58546 6.31227 6.65936 6.69867 6.58839C7.08506 6.51742 10.4325 5.14139 10.4325 4.95214C10.4325 4.76289 9.95145 0.508633 9.6794 0.512576C9.40735 0.516519 2.51933 4.27004 2.72829 4.58546Z" fill="url(#paint28_linear_281_674)"/>
<g style="mix-blend-mode:color-dodge" opacity="0.55">
<path fill-rule="evenodd" clip-rule="evenodd" d="M8.70968 1.31296C7.57022 1.57319 5.09021 3.48937 7.10103 2.75996C9.11184 2.03055 9.5692 1.11583 8.70968 1.31296Z" fill="#FF5EA0"/>
</g>
<path fill-rule="evenodd" clip-rule="evenodd" d="M17.502 9.93186L14.8091 6.85649L12.0176 5.80377C14.6711 6.85649 15.4123 7.61745 17.502 9.93186Z" fill="white"/>
<path fill-rule="evenodd" clip-rule="evenodd" d="M27.5639 6.97869C28.522 7.58193 28.7901 9.25761 28.7862 9.2103C28.7822 9.16299 28.6048 7.45182 28.6048 7.45182C28.6048 7.45182 24.9577 5.48044 24.5674 5.2557C24.1771 5.03096 24.9932 0.634766 24.9932 0.634766C24.9932 0.634766 24.2559 5.07827 23.6882 5.36609C23.1204 5.65392 20.1909 6.86435 20.1909 6.86435C20.1909 6.86435 23.2939 5.61055 24.1337 5.53563C24.9735 5.46072 26.6019 6.37545 27.5639 6.97869Z" fill="white"/>
<path fill-rule="evenodd" clip-rule="evenodd" d="M15.8735 22.3437C15.8735 22.3437 17.1549 23.0297 17.2496 23.2545C17.3442 23.4792 17.5019 27.2288 17.5019 27.2288V23.215L19.1263 22.3437C18.0819 22.7596 16.9179 22.7596 15.8735 22.3437Z" fill="white"/>
<path fill-rule="evenodd" clip-rule="evenodd" d="M29.4485 12.9441C29.3183 12.5498 28.857 9.62823 28.857 9.62823C28.857 9.62823 29.1922 12.4394 28.9201 13.2122C28.6481 13.985 26.7634 16.5715 26.7634 16.5715C26.7634 16.5715 29.0502 13.6656 29.1646 13.5079C29.2789 13.3502 33.6515 13.4567 33.6515 13.4567C33.6515 13.4567 29.5746 13.3384 29.4485 12.9441Z" fill="white"/>
<path fill-rule="evenodd" clip-rule="evenodd" d="M10.4798 3.93489C10.4798 3.90729 9.99882 0.559875 9.99882 0.559875L10.3221 3.93095C10.3221 3.97038 10.5626 5.23995 10.5626 5.25572C10.4404 5.29515 6.64746 6.90774 6.64746 6.90774L2.22367 4.42379C2.22367 4.42379 6.39118 7.10094 6.39512 7.4479C6.39907 7.79487 5.91016 11.71 5.76822 12.8771C5.6736 12.9441 1.21826 13.4843 1.21826 13.4843L5.67754 13.3069C5.67754 13.3069 10.192 19.4931 10.3813 19.4221C10.5705 19.3511 6.06787 13.8313 5.89045 13.2004C5.71302 12.5696 6.13884 10.2197 6.39512 8.64256C6.6514 7.06545 10.4877 5.29515 10.5666 5.25572C10.5666 5.25572 10.4798 3.96643 10.4798 3.93489Z" fill="white"/>
<path fill-rule="evenodd" clip-rule="evenodd" d="M10.7124 19.6074L13.3265 21.1136L14.7577 21.7681C14.7577 21.7681 12.6877 20.5419 12.5655 20.5182C12.4433 20.4945 10.7124 19.6074 10.7124 19.6074Z" fill="white"/>
<path fill-rule="evenodd" clip-rule="evenodd" d="M21.8271 20.9125L24.6226 19.4261L25.9237 17.636L24.4333 19.2762L21.8271 20.9125Z" fill="white"/>
<path fill-rule="evenodd" clip-rule="evenodd" d="M9.89234 19.9938L9.23784 20.5773L8.78442 21.3185L9.89234 19.9938Z" fill="white"/>
<path fill-rule="evenodd" clip-rule="evenodd" d="M19.2959 3.61157L20.1909 6.86042L20.5497 6.71059C20.2225 6.42671 19.7493 5.00337 19.2959 3.61157Z" fill="white"/>
<path fill-rule="evenodd" clip-rule="evenodd" d="M18.9648 8.25616L17.8371 9.4114L17.498 9.93579L18.9648 8.25616Z" fill="white"/>
<g style="mix-blend-mode:multiply" opacity="0.5">
<path d="M32.7762 4.42377L28.6047 7.45182L28.6678 8.0866L32.8196 4.60513L32.7762 4.42377Z" fill="#C42641"/>
</g>
<g style="mix-blend-mode:screen" opacity="0.28">
<path fill-rule="evenodd" clip-rule="evenodd" d="M3.99414 3.40656L9.92802 0L15.8737 3.00045L10.0069 0.638729L3.99414 3.40656Z" fill="#FF8390"/>
</g>
<g style="mix-blend-mode:color-dodge">
<path fill-rule="evenodd" clip-rule="evenodd" d="M13.8668 21.2831L13.4922 21.082C13.4922 21.082 13.6341 21.1648 13.8668 21.2831Z" fill="#FF77BB"/>
</g>
<g style="mix-blend-mode:color-dodge">
<path fill-rule="evenodd" clip-rule="evenodd" d="M24.4373 18.6887C24.4373 18.6887 18.8385 22.0716 17.6163 22.257C16.394 22.4423 14.6474 21.6813 13.8667 21.2831L17.5019 23.2151L24.6226 19.4221L29.2475 13.3818L24.4373 18.6887Z" fill="#FF77BB"/>
</g>
<g style="mix-blend-mode:color-dodge" opacity="0.5">
<path fill-rule="evenodd" clip-rule="evenodd" d="M6.10742 10.401L6.57661 8.32319L10.5667 6.02456L14.2808 7.06545L17.502 9.93185L14.8091 6.85648C14.8091 6.85648 10.681 5.19263 10.5667 5.25572L6.57661 7.2547L6.10742 10.401Z" fill="#FF77BB"/>
</g>
<path style="mix-blend-mode:color-dodge" opacity="0.5" fill-rule="evenodd" clip-rule="evenodd" d="M32.7763 4.42379L25.0682 0L19.1225 3.00045L17.498 5.81953L15.8736 3.00045L9.9279 0L2.22372 4.42379L0 13.5592L8.16548 22.0716L17.498 27.5245L26.8345 22.0716L35 13.5592L32.7763 4.42379Z" fill="url(#paint29_linear_281_674)"/>
<path style="mix-blend-mode:screen" fill-rule="evenodd" clip-rule="evenodd" d="M25.5295 4.5736C25.6695 4.83588 25.7283 5.13388 25.6984 5.42969C25.6685 5.72549 25.5513 6.00572 25.3617 6.2347C25.1721 6.46369 24.9186 6.63109 24.6336 6.71559C24.3485 6.80009 24.0448 6.79788 23.761 6.70923C23.4772 6.62058 23.2262 6.44951 23.04 6.21778C22.8537 5.98605 22.7406 5.70415 22.715 5.40794C22.6895 5.11174 22.7526 4.81462 22.8964 4.55441C23.0402 4.2942 23.2582 4.08265 23.5226 3.9467C23.6955 3.85605 23.8846 3.80036 24.0791 3.78281C24.2735 3.76526 24.4695 3.78619 24.6559 3.84441C24.8423 3.90262 25.0153 3.99699 25.1652 4.1221C25.3151 4.24722 25.4389 4.40064 25.5295 4.5736Z" fill="url(#paint30_radial_281_674)"/>
<path style="mix-blend-mode:screen" fill-rule="evenodd" clip-rule="evenodd" d="M24.7487 4.97578C24.8061 5.0842 24.8299 5.20722 24.8172 5.32921C24.8045 5.45121 24.7559 5.56669 24.6775 5.66099C24.5991 5.7553 24.4944 5.82418 24.3767 5.8589C24.2591 5.89361 24.1338 5.8926 24.0167 5.85598C23.8997 5.81937 23.7961 5.7488 23.7192 5.65324C23.6424 5.55767 23.5956 5.44142 23.5849 5.31924C23.5742 5.19705 23.6 5.07443 23.6591 4.96695C23.7182 4.85947 23.8079 4.77197 23.9168 4.71555C24.0618 4.64046 24.2305 4.62567 24.3863 4.67441C24.5421 4.72315 24.6724 4.83146 24.7487 4.97578Z" fill="url(#paint31_radial_281_674)"/>
<path style="mix-blend-mode:screen" fill-rule="evenodd" clip-rule="evenodd" d="M24.4807 5.10588C24.5111 5.18254 24.5119 5.26779 24.4828 5.34496C24.4537 5.42213 24.3968 5.48567 24.3234 5.52314C24.2499 5.56061 24.1651 5.56933 24.0855 5.54758C24.006 5.52582 23.9374 5.47517 23.8932 5.40553C23.8743 5.36748 23.863 5.32607 23.8601 5.28367C23.8572 5.24128 23.8627 5.19872 23.8762 5.15844C23.8898 5.11815 23.9112 5.08094 23.9391 5.04892C23.967 5.0169 24.001 4.9907 24.0391 4.97183C24.1155 4.9313 24.2048 4.92265 24.2876 4.94777C24.3703 4.97288 24.4397 5.02973 24.4807 5.10588Z" fill="url(#paint32_radial_281_674)"/>
<path style="mix-blend-mode:screen" fill-rule="evenodd" clip-rule="evenodd" d="M9.36005 7.45182C9.36005 7.96744 9.2071 8.47147 8.92056 8.90014C8.63401 9.32881 8.22675 9.66285 7.75031 9.85998C7.27386 10.0571 6.74964 10.1085 6.24399 10.0076C5.73833 9.90674 5.27396 9.65814 4.90964 9.29326C4.54532 8.92839 4.29742 8.46365 4.1973 7.95784C4.09719 7.45203 4.14936 6.92789 4.34722 6.45174C4.54508 5.9756 4.87974 5.56884 5.30884 5.28295C5.73794 4.99705 6.2422 4.84487 6.75782 4.84565C7.10003 4.84512 7.43897 4.91221 7.75518 5.04305C8.07139 5.17388 8.35864 5.36589 8.60043 5.60805C8.84223 5.85021 9.03381 6.13775 9.16416 6.45416C9.29452 6.77057 9.36109 7.10961 9.36005 7.45182Z" fill="url(#paint33_radial_281_674)"/>
<path style="mix-blend-mode:screen" fill-rule="evenodd" clip-rule="evenodd" d="M7.8344 7.45187C7.8344 7.66475 7.77127 7.87286 7.65299 8.04987C7.53472 8.22688 7.36661 8.36484 7.16993 8.44631C6.97325 8.52778 6.75682 8.54909 6.54803 8.50756C6.33923 8.46603 6.14744 8.36352 5.9969 8.21298C5.84637 8.06245 5.74386 7.87066 5.70232 7.66186C5.66079 7.45306 5.68211 7.23664 5.76358 7.03996C5.84504 6.84327 5.98301 6.67517 6.16002 6.55689C6.33703 6.43862 6.54513 6.37549 6.75802 6.37549C6.89937 6.37549 7.03934 6.40333 7.16993 6.45742C7.30052 6.51152 7.41918 6.5908 7.51913 6.69075C7.61908 6.7907 7.69837 6.90936 7.75246 7.03996C7.80655 7.17055 7.8344 7.31051 7.8344 7.45187Z" fill="url(#paint34_radial_281_674)"/>
<path style="mix-blend-mode:screen" fill-rule="evenodd" clip-rule="evenodd" d="M7.32578 7.45184C7.32578 7.56508 7.29214 7.67577 7.22915 7.76987C7.16615 7.86397 7.07663 7.93724 6.97194 7.98039C6.86724 8.02354 6.75209 8.03463 6.64108 8.01225C6.53008 7.98987 6.42822 7.93503 6.34842 7.85468C6.26863 7.77433 6.21449 7.6721 6.19288 7.56094C6.17127 7.44978 6.18316 7.33471 6.22703 7.23032C6.27091 7.12592 6.3448 7.03691 6.43933 6.97456C6.53386 6.91222 6.64478 6.87936 6.75802 6.88014C6.83291 6.88014 6.90706 6.89495 6.9762 6.92373C7.04535 6.95251 7.10811 6.99468 7.16088 7.04782C7.21366 7.10096 7.2554 7.16402 7.2837 7.23336C7.312 7.3027 7.3263 7.37695 7.32578 7.45184Z" fill="url(#paint35_radial_281_674)"/>
<path style="mix-blend-mode:screen" fill-rule="evenodd" clip-rule="evenodd" d="M11.4696 20.9598C11.1858 21.1727 9.53374 19.4418 7.77921 17.0998C6.02468 14.7578 4.8379 12.68 5.12178 12.471C5.40566 12.2621 7.05768 13.985 8.80827 16.331C10.5589 18.6769 11.7456 20.7469 11.4696 20.9598Z" fill="url(#paint36_radial_281_674)"/>
<path style="mix-blend-mode:screen" fill-rule="evenodd" clip-rule="evenodd" d="M9.60077 18.464C9.48249 18.5547 8.81222 17.8371 8.07492 16.8869C7.33762 15.9367 6.8566 15.0574 6.97488 14.9707C7.09317 14.884 7.76344 15.5976 8.50074 16.5478C9.23804 17.498 9.71906 18.3812 9.60077 18.464Z" fill="url(#paint37_radial_281_674)"/>
<path style="mix-blend-mode:screen" fill-rule="evenodd" clip-rule="evenodd" d="M8.98165 17.6439C8.91856 17.6913 8.55977 17.3127 8.19309 16.8002C7.82641 16.2876 7.55042 15.8303 7.61351 15.7829C7.67659 15.7356 8.03538 16.1181 8.40206 16.6306C8.76874 17.1432 9.04473 17.5966 8.98165 17.6439Z" fill="url(#paint38_radial_281_674)"/>
<path style="mix-blend-mode:screen" fill-rule="evenodd" clip-rule="evenodd" d="M29.8546 12.1555C30.0399 14.0165 29.8783 15.5582 29.4919 15.5976C29.1055 15.637 28.6363 14.1585 28.451 12.2975C28.2657 10.4365 28.4273 8.89487 28.8137 8.85545C29.2001 8.81602 29.6693 10.2946 29.8546 12.1555Z" fill="url(#paint39_radial_281_674)"/>
<path style="mix-blend-mode:screen" fill-rule="evenodd" clip-rule="evenodd" d="M29.4446 12.199C29.5195 12.9875 29.4446 13.6065 29.2948 13.6223C29.145 13.6381 28.9399 13.027 28.8611 12.2581C28.7822 11.4893 28.8611 10.8505 29.0149 10.8348C29.1686 10.819 29.3658 11.4301 29.4446 12.199Z" fill="url(#paint40_radial_281_674)"/>
<path style="mix-blend-mode:screen" fill-rule="evenodd" clip-rule="evenodd" d="M29.3066 12.2107C29.3461 12.605 29.3066 12.9559 29.2278 12.9638C29.1489 12.9717 29.0385 12.6523 28.9991 12.2423C28.9597 11.8322 28.9991 11.4971 29.078 11.4892C29.1568 11.4813 29.2672 11.8046 29.3066 12.2107Z" fill="url(#paint41_radial_281_674)"/>
</g>
<defs>
<linearGradient id="paint0_linear_281_674" x1="17.498" y1="28.8217" x2="17.498" y2="1.79396" gradientUnits="userSpaceOnUse">
<stop stop-color="#D92800"/>
<stop offset="0.39" stop-color="#C70000"/>
<stop offset="1" stop-color="#FF2F00"/>
</linearGradient>
<linearGradient id="paint1_linear_281_674" x1="9.82145" y1="8.63859" x2="-6.56077" y2="9.30492" gradientUnits="userSpaceOnUse">
<stop stop-color="#FF2F00"/>
<stop offset="0.56" stop-color="#EB0029"/>
<stop offset="1" stop-color="#A1002C"/>
</linearGradient>
<linearGradient id="paint2_linear_281_674" x1="8.33493" y1="3.85209" x2="-2.97689" y2="-4.2858" gradientUnits="userSpaceOnUse">
<stop stop-color="#FF2F00"/>
<stop offset="0.56" stop-color="#EB0029"/>
<stop offset="1" stop-color="#A1002C"/>
</linearGradient>
<linearGradient id="paint3_linear_281_674" x1="7.6254" y1="8.6189" x2="16.54" y2="-1.13157" gradientUnits="userSpaceOnUse">
<stop stop-color="#FF7A00"/>
<stop offset="0.56" stop-color="#EB0029"/>
<stop offset="1" stop-color="#A1002C"/>
</linearGradient>
<linearGradient id="paint4_linear_281_674" x1="5.18869" y1="24.8" x2="5.18869" y2="13.4606" gradientUnits="userSpaceOnUse">
<stop offset="0.13" stop-color="#EB0029"/>
<stop offset="1" stop-color="#A1002C"/>
</linearGradient>
<linearGradient id="paint5_linear_281_674" x1="12.5972" y1="30.2923" x2="12.8771" y2="23.7591" gradientUnits="userSpaceOnUse">
<stop stop-color="#FF7A00"/>
<stop offset="0.56" stop-color="#EB0029"/>
<stop offset="1" stop-color="#A1002C"/>
</linearGradient>
<linearGradient id="paint6_linear_281_674" x1="10.9255" y1="26.6255" x2="12.9876" y2="21.7917" gradientUnits="userSpaceOnUse">
<stop stop-color="#FF223C"/>
<stop offset="1"/>
</linearGradient>
<linearGradient id="paint7_linear_281_674" x1="9.32863" y1="11.6864" x2="15.5779" y2="7.25074" gradientUnits="userSpaceOnUse">
<stop stop-color="#FF7A00"/>
<stop offset="0.56" stop-color="#EB0029"/>
<stop offset="1" stop-color="#A1002C"/>
</linearGradient>
<linearGradient id="paint8_linear_281_674" x1="17.4979" y1="33.6042" x2="17.4979" y2="4.70371" gradientUnits="userSpaceOnUse">
<stop stop-color="#FF7A00"/>
<stop offset="0.56" stop-color="#EB0029"/>
<stop offset="1" stop-color="#A1002C"/>
</linearGradient>
<linearGradient id="paint9_linear_281_674" x1="18.7872" y1="19.5483" x2="16.5714" y2="6.92349" gradientUnits="userSpaceOnUse">
<stop offset="0.24"/>
<stop offset="0.99" stop-color="#FF86A4"/>
</linearGradient>
<linearGradient id="paint10_linear_281_674" x1="19.3985" y1="5.21236" x2="13.9851" y2="16.7213" gradientUnits="userSpaceOnUse">
<stop stop-color="#FF223C"/>
<stop offset="1"/>
</linearGradient>
<linearGradient id="paint11_linear_281_674" x1="17.163" y1="19.6823" x2="22.7617" y2="7.2389" gradientUnits="userSpaceOnUse">
<stop stop-color="#FF223C"/>
<stop offset="1"/>
</linearGradient>
<linearGradient id="paint12_linear_281_674" x1="15.6331" y1="10.0107" x2="8.41779" y2="17.7543" gradientUnits="userSpaceOnUse">
<stop stop-color="#FF223C"/>
<stop offset="1"/>
</linearGradient>
<linearGradient id="paint13_linear_281_674" x1="21.4644" y1="7.76334" x2="12.4433" y2="20.2659" gradientUnits="userSpaceOnUse">
<stop stop-color="#FF223C"/>
<stop offset="1"/>
</linearGradient>
<linearGradient id="paint14_linear_281_674" x1="12.3568" y1="7.51101" x2="5.3268" y2="14.9155" gradientUnits="userSpaceOnUse">
<stop stop-color="#FF223C"/>
<stop offset="1"/>
</linearGradient>
<linearGradient id="paint15_linear_281_674" x1="31.2306" y1="21.4013" x2="32.3464" y2="0.169514" gradientUnits="userSpaceOnUse">
<stop stop-color="#FF2F00"/>
<stop offset="0.56" stop-color="#EB0029"/>
<stop offset="1" stop-color="#A1002C"/>
</linearGradient>
<linearGradient id="paint16_linear_281_674" x1="22.3792" y1="10.4917" x2="33.0444" y2="-3.00439" gradientUnits="userSpaceOnUse">
<stop stop-color="#FF7A00"/>
<stop offset="0.56" stop-color="#EB0029"/>
<stop offset="1" stop-color="#A1002C"/>
</linearGradient>
<linearGradient id="paint17_linear_281_674" x1="21.3975" y1="5.34246" x2="24.7962" y2="-5.46863" gradientUnits="userSpaceOnUse">
<stop stop-color="#FF2F00"/>
<stop offset="0.56" stop-color="#EB0029"/>
<stop offset="1" stop-color="#A1002C"/>
</linearGradient>
<linearGradient id="paint18_linear_281_674" x1="28.2341" y1="25.08" x2="30.2883" y2="13.8825" gradientUnits="userSpaceOnUse">
<stop offset="0.13" stop-color="#EB0029"/>
<stop offset="1" stop-color="#A1002C"/>
</linearGradient>
<linearGradient id="paint19_linear_281_674" x1="23.0298" y1="28.8335" x2="22.5093" y2="26.3968" gradientUnits="userSpaceOnUse">
<stop stop-color="#FF7A00"/>
<stop offset="0.56" stop-color="#EB0029"/>
<stop offset="1" stop-color="#A1002C"/>
</linearGradient>
<linearGradient id="paint20_linear_281_674" x1="16.7568" y1="15.8815" x2="20.2107" y2="0.110375" gradientUnits="userSpaceOnUse">
<stop stop-color="#FF7A00"/>
<stop offset="0.56" stop-color="#EB0029"/>
<stop offset="1" stop-color="#A1002C"/>
</linearGradient>
<linearGradient id="paint21_linear_281_674" x1="10.2077" y1="5.03096" x2="2.47202" y2="0.508599" gradientUnits="userSpaceOnUse">
<stop offset="0.24"/>
<stop offset="0.99" stop-color="#FF86A4"/>
</linearGradient>
<linearGradient id="paint22_linear_281_674" x1="6.01284" y1="22.2964" x2="6.97488" y2="18.4206" gradientUnits="userSpaceOnUse">
<stop stop-color="#FF223C"/>
<stop offset="1"/>
</linearGradient>
<linearGradient id="paint23_linear_281_674" x1="1.43901" y1="6.57653" x2="1.74655" y2="12.0412" gradientUnits="userSpaceOnUse">
<stop stop-color="#FF223C"/>
<stop offset="1"/>
</linearGradient>
<linearGradient id="paint24_linear_281_674" x1="3.66289" y1="20.9677" x2="3.19764" y2="12.6602" gradientUnits="userSpaceOnUse">
<stop stop-color="#FF223C"/>
<stop offset="1"/>
</linearGradient>
<linearGradient id="paint25_linear_281_674" x1="24.6976" y1="29.6339" x2="20.7745" y2="22.1387" gradientUnits="userSpaceOnUse">
<stop stop-color="#FF223C"/>
<stop offset="1"/>
</linearGradient>
<linearGradient id="paint26_linear_281_674" x1="25.8489" y1="3.60372" x2="31.006" y2="4.28187" gradientUnits="userSpaceOnUse">
<stop stop-color="#FF223C"/>
<stop offset="1"/>
</linearGradient>
<linearGradient id="paint27_linear_281_674" x1="21.09" y1="5.06251" x2="25.4744" y2="0.488891" gradientUnits="userSpaceOnUse">
<stop offset="0.24"/>
<stop offset="0.99" stop-color="#FF86A4"/>
</linearGradient>
<linearGradient id="paint28_linear_281_674" x1="-3.37512" y1="7.3454" x2="10.5547" y2="2.77573" gradientUnits="userSpaceOnUse">
<stop offset="0.24"/>
<stop offset="0.99" stop-color="#FF86A4"/>
</linearGradient>
<linearGradient id="paint29_linear_281_674" x1="-2.8388" y1="4.74316" x2="7.57013" y2="8.63467" gradientUnits="userSpaceOnUse">
<stop stop-color="#FF0000"/>
<stop offset="0.09" stop-color="#DB0000"/>
<stop offset="0.28" stop-color="#990000"/>
<stop offset="0.46" stop-color="#630000"/>
<stop offset="0.62" stop-color="#380000"/>
<stop offset="0.77" stop-color="#190000"/>
<stop offset="0.9" stop-color="#070000"/>
<stop offset="0.98"/>
</linearGradient>
<radialGradient id="paint30_radial_281_674" cx="0" cy="0" r="1" gradientUnits="userSpaceOnUse" gradientTransform="translate(23.7919 5.392) rotate(-26.565) scale(1.506 1.48283)">
<stop stop-color="#FF54CC"/>
<stop offset="0.11" stop-color="#CB43A3"/>
<stop offset="0.24" stop-color="#963178"/>
<stop offset="0.37" stop-color="#682253"/>
<stop offset="0.5" stop-color="#431635"/>
<stop offset="0.63" stop-color="#250C1E"/>
<stop offset="0.75" stop-color="#11050D"/>
<stop offset="0.88" stop-color="#040103"/>
<stop offset="1"/>
</radialGradient>
<radialGradient id="paint31_radial_281_674" cx="0" cy="0" r="1" gradientUnits="userSpaceOnUse" gradientTransform="translate(23.7918 5.39201) rotate(-26.565) scale(0.623489 0.613897)">
<stop offset="0.59" stop-color="#FF6A97"/>
<stop offset="0.63" stop-color="#CB5478"/>
<stop offset="0.69" stop-color="#963E59"/>
<stop offset="0.74" stop-color="#682B3E"/>
<stop offset="0.79" stop-color="#431C27"/>
<stop offset="0.85" stop-color="#251016"/>
<stop offset="0.9" stop-color="#11070A"/>
<stop offset="0.95" stop-color="#040202"/>
<stop offset="1"/>
</radialGradient>
<radialGradient id="paint32_radial_281_674" cx="0" cy="0" r="1" gradientUnits="userSpaceOnUse" gradientTransform="translate(23.7919 5.39201) rotate(-26.565) scale(0.330083 0.325004)">
<stop offset="0.84" stop-color="white"/>
<stop offset="0.86" stop-color="#CBCBCB"/>
<stop offset="0.88" stop-color="#969696"/>
<stop offset="0.9" stop-color="#686868"/>
<stop offset="0.92" stop-color="#434343"/>
<stop offset="0.94" stop-color="#252525"/>
<stop offset="0.96" stop-color="#111111"/>
<stop offset="0.98" stop-color="#040404"/>
<stop offset="1"/>
</radialGradient>
<radialGradient id="paint33_radial_281_674" cx="0" cy="0" r="1" gradientUnits="userSpaceOnUse" gradientTransform="translate(6.75782 7.45182) scale(2.60617)">
<stop stop-color="#FF54CC"/>
<stop offset="0.11" stop-color="#CB43A3"/>
<stop offset="0.24" stop-color="#963178"/>
<stop offset="0.37" stop-color="#682253"/>
<stop offset="0.5" stop-color="#431635"/>
<stop offset="0.63" stop-color="#250C1E"/>
<stop offset="0.75" stop-color="#11050D"/>
<stop offset="0.88" stop-color="#040103"/>
<stop offset="1"/>
</radialGradient>
<radialGradient id="paint34_radial_281_674" cx="0" cy="0" r="1" gradientUnits="userSpaceOnUse" gradientTransform="translate(6.75802 7.45187) scale(1.07638)">
<stop offset="0.59" stop-color="#FF6A97"/>
<stop offset="0.63" stop-color="#CB5478"/>
<stop offset="0.69" stop-color="#963E59"/>
<stop offset="0.74" stop-color="#682B3E"/>
<stop offset="0.79" stop-color="#431C27"/>
<stop offset="0.85" stop-color="#251016"/>
<stop offset="0.9" stop-color="#11070A"/>
<stop offset="0.95" stop-color="#040202"/>
<stop offset="1"/>
</radialGradient>
<radialGradient id="paint35_radial_281_674" cx="0" cy="0" r="1" gradientUnits="userSpaceOnUse" gradientTransform="translate(6.75802 7.45184) scale(0.571702)">
<stop offset="0.84" stop-color="white"/>
<stop offset="0.86" stop-color="#CBCBCB"/>
<stop offset="0.88" stop-color="#969696"/>
<stop offset="0.9" stop-color="#686868"/>
<stop offset="0.92" stop-color="#434343"/>
<stop offset="0.94" stop-color="#252525"/>
<stop offset="0.96" stop-color="#111111"/>
<stop offset="0.98" stop-color="#040404"/>
<stop offset="1"/>
</radialGradient>
<radialGradient id="paint36_radial_281_674" cx="0" cy="0" r="1" gradientUnits="userSpaceOnUse" gradientTransform="translate(8.60743 17.3654) rotate(53.2525) scale(5.29948 0.645422)">
<stop stop-color="#FF54CC"/>
<stop offset="0.11" stop-color="#CB43A3"/>
<stop offset="0.24" stop-color="#963178"/>
<stop offset="0.37" stop-color="#682253"/>
<stop offset="0.5" stop-color="#431635"/>
<stop offset="0.63" stop-color="#250C1E"/>
<stop offset="0.75" stop-color="#11050D"/>
<stop offset="0.88" stop-color="#040103"/>
<stop offset="1"/>
</radialGradient>
<radialGradient id="paint37_radial_281_674" cx="0" cy="0" r="1" gradientUnits="userSpaceOnUse" gradientTransform="translate(8.60743 17.3654) rotate(53.2525) scale(2.19212 0.266978)">
<stop offset="0.59" stop-color="#FF6A97"/>
<stop offset="0.63" stop-color="#CB5478"/>
<stop offset="0.69" stop-color="#963E59"/>
<stop offset="0.74" stop-color="#682B3E"/>
<stop offset="0.79" stop-color="#431C27"/>
<stop offset="0.85" stop-color="#251016"/>
<stop offset="0.9" stop-color="#11070A"/>
<stop offset="0.95" stop-color="#040202"/>
<stop offset="1"/>
</radialGradient>
<radialGradient id="paint38_radial_281_674" cx="0" cy="0" r="1" gradientUnits="userSpaceOnUse" gradientTransform="translate(8.60732 17.3654) rotate(53.2526) scale(1.1588 0.14113)">
<stop offset="0.84" stop-color="white"/>
<stop offset="0.86" stop-color="#CBCBCB"/>
<stop offset="0.88" stop-color="#969696"/>
<stop offset="0.9" stop-color="#686868"/>
<stop offset="0.92" stop-color="#434343"/>
<stop offset="0.94" stop-color="#252525"/>
<stop offset="0.96" stop-color="#111111"/>
<stop offset="0.98" stop-color="#040404"/>
<stop offset="1"/>
</radialGradient>
<radialGradient id="paint39_radial_281_674" cx="0" cy="0" r="1" gradientUnits="userSpaceOnUse" gradientTransform="translate(28.661 10.9523) rotate(-4.57392) scale(0.709989 3.38515)">
<stop stop-color="#FF54CC"/>
<stop offset="0.11" stop-color="#CB43A3"/>
<stop offset="0.24" stop-color="#963178"/>
<stop offset="0.37" stop-color="#682253"/>
<stop offset="0.5" stop-color="#431635"/>
<stop offset="0.63" stop-color="#250C1E"/>
<stop offset="0.75" stop-color="#11050D"/>
<stop offset="0.88" stop-color="#040103"/>
<stop offset="1"/>
</radialGradient>
<radialGradient id="paint40_radial_281_674" cx="0" cy="0" r="1" gradientUnits="userSpaceOnUse" gradientTransform="translate(28.661 10.9523) rotate(-4.57393) scale(0.293686 1.40026)">
<stop offset="0.59" stop-color="#FF6A97"/>
<stop offset="0.63" stop-color="#CB5478"/>
<stop offset="0.69" stop-color="#963E59"/>
<stop offset="0.74" stop-color="#682B3E"/>
<stop offset="0.79" stop-color="#431C27"/>
<stop offset="0.85" stop-color="#251016"/>
<stop offset="0.9" stop-color="#11070A"/>
<stop offset="0.95" stop-color="#040202"/>
<stop offset="1"/>
</radialGradient>
<radialGradient id="paint41_radial_281_674" cx="0" cy="0" r="1" gradientUnits="userSpaceOnUse" gradientTransform="translate(28.661 10.9523) rotate(-4.57394) scale(0.155248 0.740207)">
<stop offset="0.84" stop-color="white"/>
<stop offset="0.86" stop-color="#CBCBCB"/>
<stop offset="0.88" stop-color="#969696"/>
<stop offset="0.9" stop-color="#686868"/>
<stop offset="0.92" stop-color="#434343"/>
<stop offset="0.94" stop-color="#252525"/>
<stop offset="0.96" stop-color="#111111"/>
<stop offset="0.98" stop-color="#040404"/>
<stop offset="1"/>
</radialGradient>
<clipPath id="clip0_281_674">
<rect width="35" height="27.5245" fill="white"/>
</clipPath>
</defs>
</svg>
