<svg width="35" height="27" viewBox="0 0 35 27" fill="none" xmlns="http://www.w3.org/2000/svg">
<g clip-path="url(#clip0_282_877)">
<path d="M2.32971 1.46844C0.510543 2.45801 1.70008 3.30197 1.70008 3.30197C1.70008 3.30197 0.0285765 4.41254 -0.000136417 6.56601C-0.0288493 8.71948 0.989433 8.257 0.989433 8.257C0.989433 8.257 0.22444 11.0083 0.621293 13.0941C1.01815 15.1799 2.00054 15.9972 3.02497 15.3501C4.04941 14.703 4.27706 6.54037 4.27706 6.54037L2.32868 1.62534L2.32971 1.46844Z" fill="#7761FF"/>
<path d="M33.7385 8.257C33.7385 8.257 34.2933 9.22709 34.4358 10.7837C34.4358 10.793 34.4358 10.7991 34.4358 10.8073C34.442 10.8637 34.4471 10.9201 34.4512 10.9776C34.4615 11.1519 34.4687 11.3313 34.4687 11.5159C34.4687 11.5744 34.4687 11.6349 34.4687 11.6974V11.7097C34.4687 11.7641 34.4635 11.8123 34.4615 11.8677C34.4615 11.9405 34.4533 12.0112 34.4492 12.0809C34.4451 12.1507 34.4379 12.2143 34.4317 12.2789C34.4111 12.5318 34.3769 12.7834 34.3292 13.0326C33.799 15.8475 32.5346 15.3481 32.5346 15.3481C32.5279 14.1562 32.4295 12.9665 32.2403 11.7897C31.8548 9.38398 30.9606 6.44399 28.9014 5.29855C25.1708 3.22199 22.8728 4.30488 22.8728 4.30488C23.1604 4.12057 23.4097 3.8824 23.607 3.60346C23.9536 3.0815 23.7987 2.64466 23.4696 2.39855C23.3346 2.30024 23.1794 2.23332 23.0153 2.20268C22.778 2.15379 22.531 2.19356 22.3211 2.31446L22.3108 2.31958C22.7569 2.27857 23.0009 2.43751 23.0891 2.66824C23.2286 3.03433 22.9866 3.57475 22.5436 3.78599C21.9683 4.06184 21.0054 3.92136 20.7152 3.10611C20.6311 2.86616 20.7213 2.5821 20.9398 2.28575C21.6576 1.27772 23.7864 0.116895 25.219 0.00717098C25.4086 -0.0121832 25.6001 0.00522618 25.783 0.058444C26.9233 0.402999 26.3932 2.25601 26.3932 2.25601L26.4619 2.20781C27.9892 1.2548 29.8033 0.869634 31.5861 1.1198C32.3357 1.22234 32.8166 1.40898 33.1243 1.62637C34.0739 2.30113 33.3007 3.30505 33.3007 3.30505C33.9603 3.82441 34.4612 4.51821 34.7466 5.30778C34.8142 5.49361 34.868 5.68418 34.9076 5.87793C34.9416 6.03804 34.9662 6.2 34.9814 6.36298C35.166 8.35852 33.7385 8.257 33.7385 8.257Z" fill="url(#paint0_linear_282_877)"/>
<path style="mix-blend-mode:multiply" opacity="0.8" d="M23.0051 2.42212L22.96 2.37085C22.9762 2.38683 22.9913 2.40397 23.0051 2.42212Z" fill="url(#paint1_linear_282_877)"/>
<path style="mix-blend-mode:multiply" opacity="0.8" d="M22.5353 3.78602C21.96 4.06186 20.9971 3.92138 20.7069 3.10614C20.6228 2.86618 20.713 2.58212 20.9315 2.28577C20.6382 3.83011 22.6747 3.42095 22.9557 3.00359C23.0278 2.90522 23.0711 2.78878 23.0808 2.66724C23.2203 3.0364 22.9752 3.58092 22.5353 3.78602Z" fill="url(#paint2_linear_282_877)"/>
<path style="mix-blend-mode:multiply" opacity="0.8" d="M26.385 2.25496L26.4537 2.20676C26.4209 2.25291 26.3891 2.30213 26.3594 2.35135C26.2313 2.58963 26.1341 2.84325 26.0702 3.10609L25.6395 3.1912L23.606 3.60139C23.9526 3.07943 23.7978 2.64258 23.4686 2.39647C23.3409 2.286 23.1823 2.2176 23.0143 2.20061C22.7772 2.17904 22.5384 2.21748 22.3201 2.31238L22.3098 2.31751C22.3437 2.26932 22.7764 1.68378 23.2594 1.80478C23.7629 1.92681 24.2674 2.92048 25.056 2.49799C25.8446 2.0755 26.6044 0.798805 25.7789 0.0594482C26.9152 0.401952 26.385 2.25496 26.385 2.25496Z" fill="url(#paint3_linear_282_877)"/>
<path style="mix-blend-mode:multiply" opacity="0.8" d="M34.9834 6.35989C34.9682 6.19691 34.9436 6.03496 34.9095 5.87485C34.9693 6.20171 34.9381 6.53873 34.8193 6.84904C34.3906 7.88886 33.4318 7.29717 33.4318 7.29717C33.4318 7.29717 33.3908 4.56739 28.1876 3.23942C28.1876 3.23942 31.2261 2.7072 32.8596 3.4199C33.7089 3.78081 34.3858 4.45617 34.7485 5.30469C34.4632 4.51513 33.9623 3.82133 33.3026 3.30197C33.3026 3.30197 34.0758 2.29804 33.1263 1.62329C33.5549 2.76976 32.6956 2.93075 32.0649 2.78924C31.4342 2.64773 29.9812 2.34111 27.3478 3.04253C27.3478 3.04253 26.2198 3.04253 26.3572 2.35342C26.3638 2.32081 26.3724 2.28863 26.3828 2.25703L25.6373 3.19532L25.5532 3.30402L27.4698 4.01466L27.8338 3.35324L30.1411 5.6472L32.6853 8.1565L32.2372 11.7918C32.4263 12.9686 32.5247 14.1582 32.5315 15.3501C32.5315 15.3501 33.7959 15.8495 34.326 13.0346C34.3738 12.7854 34.408 12.5338 34.4286 12.2809C34.2368 14.2293 33.4893 14.5851 33.4893 14.5851L33.5087 13.2582C33.5303 11.9322 33.0801 8.42107 33.3037 8.44466C33.3037 8.44466 34.2389 9.03737 34.4368 10.7858C34.2943 9.22913 33.7395 8.25905 33.7395 8.25905C33.7395 8.25905 35.1659 8.35852 34.9834 6.35989Z" fill="url(#paint4_linear_282_877)"/>
<g style="mix-blend-mode:soft-light">
<path d="M28.0062 1.46335C25.9553 2.79644 29.1465 2.35755 31.1318 2.37088C33.1171 2.38421 32.3501 1.46335 32.3501 1.46335C32.3501 1.46335 30.9606 0.430706 28.0062 1.46335Z" fill="#FFFF65"/>
</g>
<g style="mix-blend-mode:soft-light">
<path d="M21.3714 2.07347C20.8823 3.15534 21.9867 3.54296 22.5343 3.10714C23.0819 2.67132 22.3056 2.31753 22.3056 2.31753C22.3056 2.31753 21.9836 2.0099 22.8184 1.74738C23.6531 1.48486 24.4047 2.37086 24.4047 2.37086C24.4047 2.37086 26.6351 1.7884 25.5533 0.584505C24.4714 -0.619385 21.7888 1.26234 21.3714 2.07347Z" fill="#FFFF65"/>
</g>
<g style="mix-blend-mode:soft-light">
<path d="M30.1257 3.07434C27.963 3.33891 31.8803 3.40761 33.0226 5.52826C33.9753 7.29616 34.7167 7.2777 34.3906 5.4411C34.0645 3.6045 31.6506 2.79746 30.1257 3.07434Z" fill="#FFFF65"/>
</g>
<g style="mix-blend-mode:soft-light">
<path d="M33.513 8.85382C33.0638 8.78716 33.513 13.2971 33.7376 13.5012C33.9621 13.7053 35.3198 10.5202 33.513 8.85382Z" fill="#FFFF65"/>
</g>
<path d="M29.9156 1.16595C28.9722 1.42129 29.7577 2.04375 30.1464 1.63562C30.535 1.22748 29.9156 1.16595 29.9156 1.16595Z" fill="#FFFF65"/>
<path d="M24.5956 0.288176C24.1855 0.974209 25.5186 1.1147 25.5555 0.584534C25.5924 0.0543704 24.7177 0.0871853 24.5956 0.288176Z" fill="#FFFF65"/>
<path d="M32.1256 3.28249C31.1596 3.11329 31.9348 4.04646 32.425 4.0198C32.9152 3.99314 32.8875 3.4158 32.1256 3.28249Z" fill="#FFFF65"/>
<path d="M1.50221 8.25703C1.50221 8.25703 0.946406 9.22712 0.804892 10.7838C0.804892 10.793 0.804892 10.7992 0.804892 10.8074C0.797714 10.8638 0.793613 10.9202 0.789511 10.9776C0.778231 11.1519 0.772077 11.3314 0.772077 11.5159C0.772077 11.5744 0.772077 11.6349 0.772077 11.6975V11.7098C0.772077 11.7641 0.772078 11.8123 0.778231 11.8677C0.778231 11.9405 0.78746 12.0112 0.791561 12.081C0.795663 12.1507 0.802841 12.2143 0.808994 12.2789C0.829088 12.5318 0.863324 12.7835 0.91154 13.0326C1.44068 15.8475 2.70507 15.3481 2.70507 15.3481C2.71192 14.1562 2.81066 12.9665 3.0004 11.7897C3.38598 9.38401 4.28018 6.44402 6.3393 5.29858C10.0699 3.22202 12.368 4.30491 12.368 4.30491C12.0801 4.12091 11.8307 3.88268 11.6338 3.60349C11.2861 3.08153 11.442 2.64469 11.7712 2.39858C11.9061 2.30027 12.0613 2.23335 12.2254 2.20271C12.4624 2.15398 12.709 2.19375 12.9187 2.31449C12.9219 2.31662 12.9253 2.31834 12.9289 2.31961C12.4839 2.2786 12.2398 2.43754 12.1516 2.66827C12.0122 3.03436 12.2542 3.57478 12.6961 3.78602C13.2714 4.06187 14.2343 3.92139 14.5256 3.10614C14.6096 2.86619 14.5184 2.58213 14.301 2.28578C13.578 1.27775 11.4543 0.116925 10.0217 0.00720101C9.83219 -0.0122049 9.64067 0.00520538 9.45773 0.0584741C8.31742 0.403029 8.84245 2.25604 8.84245 2.25604L8.77375 2.20784C7.24638 1.25483 5.43236 0.869664 3.64952 1.11983C2.89991 1.22237 2.41897 1.40901 2.11133 1.6264C1.16175 2.30116 1.93495 3.30508 1.93495 3.30508C1.27532 3.82444 0.774419 4.51824 0.489051 5.30781C0.421444 5.49364 0.367633 5.68421 0.328054 5.87796C0.294022 6.03807 0.269369 6.20003 0.25422 6.36301C0.0665609 8.35855 1.50221 8.25703 1.50221 8.25703Z" fill="url(#paint5_linear_282_877)"/>
<path style="mix-blend-mode:multiply" opacity="0.8" d="M12.2305 2.42212L12.2756 2.37085C12.2593 2.38683 12.2443 2.40397 12.2305 2.42212Z" fill="url(#paint6_linear_282_877)"/>
<path style="mix-blend-mode:multiply" opacity="0.8" d="M12.6992 3.78602C13.2744 4.06186 14.2373 3.92138 14.5286 3.10614C14.6127 2.86618 14.5214 2.58212 14.304 2.28577C14.5973 3.83011 12.5607 3.42095 12.2797 3.00359C12.2077 2.90522 12.1644 2.78878 12.1546 2.66724C12.0152 3.0364 12.2603 3.58092 12.6992 3.78602Z" fill="url(#paint7_linear_282_877)"/>
<path style="mix-blend-mode:multiply" opacity="0.8" d="M8.85062 2.25496L8.78191 2.20676C8.8137 2.25291 8.84652 2.30213 8.87626 2.35135C9.00431 2.58963 9.10148 2.84325 9.16544 3.10609L9.59613 3.1912L11.6296 3.60139C11.282 3.07943 11.4379 2.64258 11.767 2.39647C11.8947 2.286 12.0533 2.2176 12.2213 2.20061C12.4581 2.17913 12.6965 2.21757 12.9145 2.31238C12.9177 2.31451 12.9212 2.31624 12.9248 2.31751C12.8909 2.26932 12.4572 1.68378 11.9752 1.80478C11.4707 1.92681 10.9672 2.92048 10.1786 2.49799C9.39001 2.0755 8.63015 0.798805 9.46077 0.0594482C8.32046 0.401952 8.85062 2.25496 8.85062 2.25496Z" fill="url(#paint8_linear_282_877)"/>
<path style="mix-blend-mode:multiply" opacity="0.8" d="M1.50206 8.25703C1.50206 8.25703 0.946263 9.22712 0.804749 10.7838C1.00266 9.03536 1.93276 8.44264 1.93276 8.44264C2.1522 8.41906 1.70203 11.9292 1.72766 13.2562L1.74715 14.5831C1.74715 14.5831 0.999587 14.2262 0.807826 12.2789C0.82792 12.5318 0.862156 12.7835 0.910372 13.0326C1.43951 15.8475 2.7039 15.3481 2.7039 15.3481C2.71075 14.1562 2.80949 12.9665 2.99924 11.7897L2.54803 8.15449L5.09118 5.64519L7.39744 3.35123L7.76147 4.01265L9.67909 3.30201L9.595 3.19331L8.84949 2.25501C8.85992 2.28661 8.86848 2.3188 8.87513 2.35141C9.01561 3.04462 7.88453 3.04052 7.88453 3.04052C5.25217 2.3391 3.8032 2.64264 3.16741 2.78723C2.53163 2.93182 1.67742 2.76774 2.10606 1.62128C1.15648 2.29603 1.92968 3.29996 1.92968 3.29996C1.27005 3.81932 0.769148 4.51312 0.48378 5.30268C0.846175 4.45392 1.52313 3.77843 2.37268 3.41788C4.00521 2.70006 7.04468 3.2374 7.04468 3.2374C1.84047 4.5705 1.79945 7.29515 1.79945 7.29515C1.79945 7.29515 0.841666 7.88684 0.413023 6.84703C0.293718 6.53682 0.262488 6.19968 0.322783 5.87284C0.288751 6.03294 0.264098 6.1949 0.248949 6.35788C0.0664174 8.35855 1.50206 8.25703 1.50206 8.25703Z" fill="url(#paint9_linear_282_877)"/>
<g style="mix-blend-mode:soft-light">
<path d="M7.22935 1.46335C9.28028 2.79644 6.08904 2.35755 4.10272 2.37088C2.11641 2.38421 2.8855 1.46335 2.8855 1.46335C2.8855 1.46335 4.2709 0.430706 7.22935 1.46335Z" fill="#FFFF65"/>
</g>
<g style="mix-blend-mode:soft-light">
<path d="M13.8642 2.07347C14.3533 3.15534 13.2489 3.54296 12.7003 3.10714C12.1517 2.67132 12.93 2.31753 12.93 2.31753C12.93 2.31753 13.252 2.0099 12.4173 1.74738C11.5826 1.48486 10.834 2.37086 10.834 2.37086C10.834 2.37086 8.60256 1.7884 9.68545 0.584505C10.7683 -0.619385 13.4468 1.26234 13.8642 2.07347Z" fill="#FFFF65"/>
</g>
<g style="mix-blend-mode:soft-light">
<path d="M5.10982 3.07434C7.27252 3.33891 3.35526 3.40761 2.21289 5.52826C1.26024 7.29616 0.518832 7.2777 0.844928 5.4411C1.17102 3.6045 3.58496 2.79746 5.10982 3.07434Z" fill="#FFFF65"/>
</g>
<g style="mix-blend-mode:soft-light">
<path d="M1.72261 8.85382C2.17176 8.78716 1.72261 13.2971 1.49803 13.5012C1.27346 13.7053 -0.0842537 10.5202 1.72261 8.85382Z" fill="#FFFF65"/>
</g>
<path d="M5.31987 1.16595C6.26227 1.42129 5.47676 2.04375 5.08914 1.63562C4.70152 1.22748 5.31987 1.16595 5.31987 1.16595Z" fill="#FFFF65"/>
<path d="M10.6399 0.288176C11.0501 0.974209 9.71701 1.1147 9.68009 0.584534C9.64317 0.0543704 10.5179 0.0871853 10.6399 0.288176Z" fill="#FFFF65"/>
<path d="M3.10999 3.28249C4.07597 3.11329 3.30073 4.04646 2.81056 4.0198C2.32039 3.99314 2.34807 3.4158 3.10999 3.28249Z" fill="#FFFF65"/>
<path d="M5.3311 4.50385C5.3311 4.50385 -0.74783 8.88359 3.32838 16.7786C6.85186 23.6041 15.7016 26.9307 17.8243 26.6292C20.7099 26.219 22.4296 20.9892 22.4296 20.9892L5.3311 4.50385Z" fill="#7761FF"/>
<path d="M28.8103 20.5707C24.3546 24.2849 20.3707 26.6271 17.8245 26.6271C15.8607 26.6271 11.2923 24.2849 6.83668 20.5707C2.1575 16.674 0.947454 9.87106 4.03307 5.94868C4.69528 5.1117 5.53155 4.42869 6.48392 3.94698C12.6798 0.778305 16.3714 7.25101 17.8245 7.25101C19.4355 7.25101 23.3056 0.870595 29.161 3.94288C31.6887 5.26982 33.0198 7.67453 33.2628 10.3561C33.5838 13.8868 32.0169 17.9004 28.8103 20.5707Z" fill="url(#paint10_linear_282_877)"/>
<path d="M26.6424 19.8919C23.0656 22.8718 19.8743 24.7515 17.8234 24.7515C16.2473 24.7515 12.5802 22.8718 9.00445 19.8919C7.25502 18.4162 6.03989 16.4057 5.5466 14.1708C4.85544 11.0021 5.80091 7.8068 8.72553 6.54548C13.6477 4.42586 15.4433 9.21168 17.8255 9.21168C20.2076 9.21168 22.1324 4.25973 26.9234 6.54548C28.2072 7.16076 29.1045 8.22314 29.6183 9.51932C30.8806 12.6788 29.8572 17.2195 26.6424 19.8919Z" fill="url(#paint11_linear_282_877)"/>
<path d="M25.7963 7.95859C21.5919 5.95484 19.903 10.2987 17.8131 10.2987C15.7232 10.2987 14.1461 6.09431 9.82887 7.95859C5.55269 9.80442 6.10337 16.3581 10.075 19.6673C13.2139 22.2812 16.4328 23.9312 17.8131 23.9312C19.6097 23.9312 22.4123 22.2812 25.5502 19.6673C29.5228 16.3581 29.6797 9.81058 25.7963 7.95859Z" fill="url(#paint12_linear_282_877)"/>
<path style="mix-blend-mode:multiply" opacity="0.8" d="M28.2062 15.6813C28.2062 15.6813 28.8994 9.39014 24.0551 8.51029C19.2109 7.63045 18.8253 11.561 17.7363 11.4441C16.6472 11.3272 15.4269 7.88784 10.4155 8.60566C5.46969 9.32348 7.21502 15.305 7.26117 15.466L5.5466 14.1678C4.85544 10.9991 5.80091 7.80375 8.72553 6.54243C13.6477 4.42281 15.4433 9.20863 17.8255 9.20863C20.2076 9.20863 22.1324 4.25668 26.9234 6.54243C28.2072 7.15771 29.1045 8.22009 29.6183 9.51627L29.6244 9.55626C30.292 14.2877 28.2062 15.6813 28.2062 15.6813Z" fill="url(#paint13_linear_282_877)"/>
<g style="mix-blend-mode:soft-light" opacity="0.5">
<path d="M9.69161 11.4483C6.18351 13.8427 11.5282 21.8998 17.1518 22.7704C22.7755 23.641 29.6235 16.0136 26.2784 11.7826C22.9334 7.55152 17.5395 12.2635 17.5395 12.2635C17.5395 12.2635 13.978 7.55049 9.69161 11.4483Z" fill="#FFB865"/>
</g>
<g style="mix-blend-mode:soft-light" opacity="0.5">
<path d="M10.4707 9.38807C7.4641 13.733 11.3055 20.8579 19.3236 19.9667C27.3416 19.0756 30.296 12.6736 26.1152 9.60957C21.9344 6.5455 17.7361 11.4421 17.7361 11.4421C17.7361 11.4421 13.7317 7.65504 10.4707 9.38807Z" fill="#FFB865"/>
</g>
<g style="mix-blend-mode:soft-light" opacity="0.8">
<path d="M13.9226 10.39C7.88164 10.9161 12.809 17.238 18.1537 17.0155C23.4984 16.793 26.1154 12.2276 23.8891 9.83727C21.6628 7.44692 17.8173 12.2666 17.8173 12.2666C17.8173 12.2666 16.4842 10.1675 13.9226 10.39Z" fill="#FF9ABA"/>
</g>
<path style="mix-blend-mode:multiply" opacity="0.8" d="M28.8103 20.5707C24.3546 24.2849 20.3707 26.6271 17.8245 26.6271C15.8607 26.6271 11.2923 24.2849 6.83668 20.5707C2.1575 16.674 0.947454 9.87106 4.03307 5.94867C-0.213367 13.7924 8.23746 25.2427 17.9147 25.4786C26.7275 25.6939 32.5788 15.1604 33.2628 10.3561C33.5838 13.8868 32.0169 17.9004 28.8103 20.5707Z" fill="url(#paint14_linear_282_877)"/>
<g style="mix-blend-mode:soft-light">
<path d="M4.40207 6.04814C1.89686 11.278 4.12314 13.0941 4.12314 13.0941C4.12314 13.0941 4.08827 8.19853 8.57056 6.04814C13.0529 3.89775 15.3704 7.92986 17.2634 8.60564C19.1564 9.28142 21.717 6.05019 24.6118 5.60411C27.5067 5.15804 30.2632 8.22109 30.3883 11.9517C30.5134 15.6823 32.7684 13.1207 32.6853 9.49061C32.6022 5.86048 28.4255 2.43442 25.1687 3.2271C21.9118 4.01978 18.738 7.47763 17.7361 7.47763C16.7343 7.47763 13.3523 3.51012 10.2615 3.25991C7.17081 3.0097 4.40207 6.04814 4.40207 6.04814Z" fill="#FFFF65"/>
</g>
<g style="mix-blend-mode:soft-light">
<path d="M22.7035 4.26282C20.8679 6.14556 24.2899 5.02576 26.9223 6.54549C29.5546 8.06523 29.7761 9.16657 29.7761 9.16657C29.7761 9.16657 31.182 7.77399 29.1783 4.7253C27.1745 1.6766 22.7035 4.26282 22.7035 4.26282Z" fill="#FFFF65"/>
</g>
<path style="mix-blend-mode:screen" d="M26.631 3.10712C29.01 5.10061 25.2107 5.97841 25.2107 5.97841C25.2107 5.97841 29.9278 6.35065 30.1329 12.0727C30.1329 12.0727 30.1606 9.90284 30.2519 7.75245C30.3431 5.60206 31.585 5.94867 31.585 5.94867C31.585 5.94867 29.7412 3.42911 26.631 3.10712Z" fill="url(#paint15_linear_282_877)"/>
<path style="mix-blend-mode:screen" d="M6.49707 19.5278C9.4504 22.4586 9.76214 20.5071 9.76214 20.5071C9.76214 20.5071 12.0797 22.4832 14.1716 23.4441C14.1716 23.4441 13.22 23.5722 13.3061 24.5249C13.3082 24.5249 9.62165 23.5435 6.49707 19.5278Z" fill="url(#paint16_linear_282_877)"/>
<g style="mix-blend-mode:soft-light">
<path d="M7.67342 4.09877C5.70658 6.47886 10.1161 5.03296 12.3208 6.16507C14.5255 7.29718 15.7048 7.58943 15.7048 7.58943C15.7048 7.58943 15.4095 5.41956 13.1084 3.92444C10.8072 2.42932 7.67342 4.09877 7.67342 4.09877Z" fill="#FFFF65"/>
</g>
<path d="M11.64 3.63936C10.3407 4.12235 12.1394 5.82667 13.1433 5.29651C14.1472 4.76634 12.3721 3.36864 11.64 3.63936Z" fill="white"/>
<path d="M9.67822 21.1163C10.2238 20.5317 13.0674 22.0238 12.5495 23.0728C12.5516 23.0708 10.2525 23.0492 9.67822 21.1163Z" fill="white"/>
<path d="M12.0284 21.1686C12.496 20.5092 13.0436 21.6988 12.8375 21.7203C12.6314 21.7418 12.0202 21.347 12.0284 21.1686Z" fill="white"/>
<g style="mix-blend-mode:soft-light" opacity="0.8">
<path d="M19.785 10.8124C17.8889 14.1103 23.9166 15.5818 24.6262 11.7353C25.3358 7.88884 20.4915 9.58496 19.785 10.8124Z" fill="#FF9ABA"/>
</g>
<path d="M20.8177 10.0885C20.1491 11.559 22.7435 11.8389 22.8686 10.3561C22.9937 8.8733 20.8177 10.0885 20.8177 10.0885Z" fill="#FFB6BA"/>
<path style="mix-blend-mode:screen" opacity="0.5" d="M7.26123 15.4691C9.69157 11.4483 16.8739 23.2452 16.8739 23.2452C16.8739 23.2452 9.39829 21.5839 7.26123 15.4691Z" fill="url(#paint17_linear_282_877)"/>
<g style="mix-blend-mode:soft-light">
<path d="M3.32861 7.41717C3.3604 11.1868 6.86133 9.24044 6.14248 6.43683C5.42363 3.63322 3.32861 7.41717 3.32861 7.41717Z" fill="white"/>
</g>
<path d="M8.11133 6.8552C8.11133 6.8552 9.17678 5.72719 11.5353 5.76924C13.8939 5.81128 15.8043 9.17274 17.8665 8.88048C19.9287 8.58823 21.4105 6.06149 23.9373 5.59901C26.464 5.13653 27.6289 6.97928 27.6289 6.97928C27.6289 6.97928 25.6406 5.60619 23.3015 6.12815C20.9624 6.65011 19.5544 9.61471 17.6297 9.36245C15.4259 9.07122 14.7409 6.91365 12.3188 6.16199C11.6116 5.9446 10.8636 5.89405 10.1336 6.01433C9.40361 6.13461 8.71141 6.42242 8.11133 6.8552Z" fill="#FFFF7F"/>
</g>
<defs>
<linearGradient id="paint0_linear_282_877" x1="27.838" y1="15.3819" x2="27.838" y2="-7.86055e-06" gradientUnits="userSpaceOnUse">
<stop stop-color="#F68743"/>
<stop offset="1" stop-color="#FFB526"/>
</linearGradient>
<linearGradient id="paint1_linear_282_877" x1="22.9825" y1="2.42212" x2="22.9825" y2="2.37085" gradientUnits="userSpaceOnUse">
<stop stop-color="#7F0077"/>
<stop offset="1" stop-color="#E7B5FF"/>
</linearGradient>
<linearGradient id="paint2_linear_282_877" x1="21.8974" y1="3.91727" x2="21.8974" y2="2.28474" gradientUnits="userSpaceOnUse">
<stop stop-color="#7F0077"/>
<stop offset="1" stop-color="#E7B5FF"/>
</linearGradient>
<linearGradient id="paint3_linear_282_877" x1="24.4069" y1="3.60344" x2="24.4069" y2="0.0573974" gradientUnits="userSpaceOnUse">
<stop stop-color="#7F0077"/>
<stop offset="1" stop-color="#E7B5FF"/>
</linearGradient>
<linearGradient id="paint4_linear_282_877" x1="30.2775" y1="15.3819" x2="30.2775" y2="1.62329" gradientUnits="userSpaceOnUse">
<stop stop-color="#7F0077"/>
<stop offset="1" stop-color="#E7B5FF"/>
</linearGradient>
<linearGradient id="paint5_linear_282_877" x1="7.39758" y1="15.3819" x2="7.39758" y2="2.33118e-05" gradientUnits="userSpaceOnUse">
<stop stop-color="#F68743"/>
<stop offset="1" stop-color="#FFB526"/>
</linearGradient>
<linearGradient id="paint6_linear_282_877" x1="12.253" y1="2.42212" x2="12.253" y2="2.37085" gradientUnits="userSpaceOnUse">
<stop stop-color="#7F0077"/>
<stop offset="1" stop-color="#E7B5FF"/>
</linearGradient>
<linearGradient id="paint7_linear_282_877" x1="13.338" y1="3.91727" x2="13.338" y2="2.28474" gradientUnits="userSpaceOnUse">
<stop stop-color="#7F0077"/>
<stop offset="1" stop-color="#E7B5FF"/>
</linearGradient>
<linearGradient id="paint8_linear_282_877" x1="10.8287" y1="3.60344" x2="10.8287" y2="0.0573974" gradientUnits="userSpaceOnUse">
<stop stop-color="#7F0077"/>
<stop offset="1" stop-color="#E7B5FF"/>
</linearGradient>
<linearGradient id="paint9_linear_282_877" x1="4.95787" y1="15.3819" x2="4.95787" y2="1.62333" gradientUnits="userSpaceOnUse">
<stop stop-color="#7F0077"/>
<stop offset="1" stop-color="#E7B5FF"/>
</linearGradient>
<linearGradient id="paint10_linear_282_877" x1="17.8173" y1="26.6271" x2="17.8173" y2="3.07123" gradientUnits="userSpaceOnUse">
<stop stop-color="#F68743"/>
<stop offset="1" stop-color="#FFB526"/>
</linearGradient>
<linearGradient id="paint11_linear_282_877" x1="17.7362" y1="24.7515" x2="17.7362" y2="5.94457" gradientUnits="userSpaceOnUse">
<stop stop-color="#FF5B40"/>
<stop offset="0.43" stop-color="#F4083A"/>
<stop offset="1" stop-color="#BF0052"/>
</linearGradient>
<linearGradient id="paint12_linear_282_877" x1="17.7362" y1="23.9312" x2="17.7362" y2="7.43048" gradientUnits="userSpaceOnUse">
<stop stop-color="#D10240"/>
<stop offset="1" stop-color="#FF1D31"/>
</linearGradient>
<linearGradient id="paint13_linear_282_877" x1="17.5435" y1="15.6803" x2="17.5435" y2="5.94459" gradientUnits="userSpaceOnUse">
<stop stop-color="#FF68FF"/>
<stop offset="1" stop-color="#7F0077"/>
</linearGradient>
<linearGradient id="paint14_linear_282_877" x1="17.8173" y1="26.6271" x2="17.8173" y2="5.94867" gradientUnits="userSpaceOnUse">
<stop stop-color="#7F0077"/>
<stop offset="1" stop-color="#E7B5FF"/>
</linearGradient>
<linearGradient id="paint15_linear_282_877" x1="28.3978" y1="12.0727" x2="28.3978" y2="3.10712" gradientUnits="userSpaceOnUse">
<stop/>
<stop offset="1" stop-color="white"/>
</linearGradient>
<linearGradient id="paint16_linear_282_877" x1="10.3354" y1="24.5249" x2="10.3354" y2="19.5278" gradientUnits="userSpaceOnUse">
<stop/>
<stop offset="1" stop-color="#FFD890"/>
</linearGradient>
<linearGradient id="paint17_linear_282_877" x1="12.0676" y1="23.2452" x2="12.0676" y2="14.6334" gradientUnits="userSpaceOnUse">
<stop/>
<stop offset="1" stop-color="#FF45FF"/>
</linearGradient>
<clipPath id="clip0_282_877">
<rect width="35" height="26.6456" fill="white"/>
</clipPath>
</defs>
</svg>
